<?xml version="1.0" standalone="no"?>
<!DOCTYPE svg PUBLIC "-//W3C//DTD SVG 1.1//EN" "http://www.w3.org/Graphics/SVG/1.1/DTD/svg11.dtd" >
<!--
2013-9-30: Created.
-->
<svg>
<metadata>
Created by iconfont
</metadata>
<defs>

<font id="iconfont" horiz-adv-x="1024" >
  <font-face
    font-family="iconfont"
    font-weight="500"
    font-stretch="normal"
    units-per-em="1024"
    ascent="896"
    descent="-128"
  />
    <missing-glyph />
    
    <glyph glyph-name="x" unicode="x" horiz-adv-x="1001"
d="M281 543q-27 -1 -53 -1h-83q-18 0 -36.5 -6t-32.5 -18.5t-23 -32t-9 -45.5v-76h912v41q0 16 -0.5 30t-0.5 18q0 13 -5 29t-17 29.5t-31.5 22.5t-49.5 9h-133v-97h-438v97zM955 310v-52q0 -23 0.5 -52t0.5 -58t-10.5 -47.5t-26 -30t-33 -16t-31.5 -4.5q-14 -1 -29.5 -0.5
t-29.5 0.5h-32l-45 128h-439l-44 -128h-29h-34q-20 0 -45 1q-25 0 -41 9.5t-25.5 23t-13.5 29.5t-4 30v167h911zM163 247q-12 0 -21 -8.5t-9 -21.5t9 -21.5t21 -8.5q13 0 22 8.5t9 21.5t-9 21.5t-22 8.5zM316 123q-8 -26 -14 -48q-5 -19 -10.5 -37t-7.5 -25t-3 -15t1 -14.5
t9.5 -10.5t21.5 -4h37h67h81h80h64h36q23 0 34 12t2 38q-5 13 -9.5 30.5t-9.5 34.5q-5 19 -11 39h-368zM336 498v228q0 11 2.5 23t10 21.5t20.5 15.5t34 6h188q31 0 51.5 -14.5t20.5 -52.5v-227h-327z" />
    

    
    <glyph glyph-name="back01" unicode="&#58919;" d="M320 384L380.63104 320.39936 380.63104 320.40038400000003 643.36896 44.799999999999955 704 108.39961600000004 441.263104 384 704 659.5993599999999 643.36896 723.2 380.63104 447.599616 380.63104 447.599616Z"  horiz-adv-x="1024" />

    
    <glyph glyph-name="wanshangchangci" unicode="&#58968;" d="M393.387555 732.740706c-1.277086-3.344165-2.51938-6.702656-3.727904-10.078543C369.94668 667.591917 359.952049 609.7761399999999 359.952049 550.822446c0-68.699662 13.425777-135.378294 39.903825-198.183711 25.567305-60.644195 62.158688-115.099435 108.759029-161.851225 46.613644-46.765093 100.915387-83.489506 161.396877-109.154026 28.910447-12.267395 58.639538-21.744233 89.014336-28.3947-9.104355-5.461385-18.425651-10.5421-27.926026-15.217586-25.75457-12.673647-52.952003-22.428825-80.83505-28.993335-28.712949-6.759961-58.386782-10.188037-88.198761-10.188037-51.977815 0-102.369505 10.200316-149.776212 30.317493-45.833885 19.448958-87.011726 47.308469-122.392538 82.804914-35.394115 35.509748-63.176878 76.847226-82.57774 122.864282-20.077268 47.623647-30.258141 98.250698-30.258141 150.473083 0 96.855932 35.859719 189.494819 100.972693 260.85303C311.131133 682.422693 350.306364 711.647295 393.387555 732.740706M519.689123 831.090665c-226.65516-21.427008-404.025846-212.786291-404.025846-445.792089 0-247.341295 199.86091-447.857121 446.403003-447.857121 140.77521 0 266.25097 65.446571 348.068394 167.583786-13.95278-1.326205-28.080545-2.066055-42.38125-2.066055-246.536976 0-446.403003 200.506617-446.403003 447.862237C421.35042 656.9219029999999 458.215026 754.362142 519.689123 831.090665L519.689123 831.090665z"  horiz-adv-x="1024" />

    
    <glyph glyph-name="flag" unicode="&#59026;" d="M298.65984 853.34016q35.328 0 76.00128-8.82688t78.336-21.34016l75.32544-25.00608t78.336-21.34016 76.00128-8.82688q36.00384 0 71.00416 4.34176t59.65824 10.67008 44.17536 12.67712 29.16352 10.67008l9.33888 4.34176 0-597.34016q-3.33824-1.65888-9.99424-4.5056t-28.16-10.3424-44.83072-13.0048-58.83904-10.15808-71.49568-4.66944q-35.328 0-76.00128 8.82688t-78.336 21.34016l-75.32544 25.00608t-78.336 21.34016-76.00128 8.82688q-63.67232 0-128-14.336l0-284.32384q0-17.67424-12.4928-30.16704t-30.16704-12.4928-30.16704 12.4928-12.4928 30.16704l0 853.34016q3.33824 1.65888 9.99424 4.5056t28.16 10.3424 44.83072 13.0048 58.83904 10.15808 71.49568 4.66944zM298.65984 768q-65.3312 0-128-16.9984l0-422.33856q64 12.67712 128 12.67712 47.32928 0 94.65856-10.83392t107.66336-30.84288q7.65952-2.6624 28.83584-9.8304t31.00672-10.3424 28.83584-8.66304 31.82592-8.00768 29.4912-4.66944 31.66208-2.17088q65.3312 0 128 16.9984l0 422.33856q-64-12.67712-128-12.67712-47.32928 0-94.65856 10.83392t-107.66336 30.84288q-7.65952 2.6624-28.83584 9.8304t-31.00672 10.3424-28.83584 8.66304-31.82592 8.00768-29.4912 4.66944-31.66208 2.17088z"  horiz-adv-x="1024" />

    
    <glyph glyph-name="queren" unicode="&#58921;" d="M512-128C229.233778-128 0 101.23377800000003 0 384S229.233778 896 512 896s512-229.233778 512-512S794.766222-128 512-128zM512 839.111111C260.636444 839.111111 56.888889 635.363556 56.888889 384s203.747556-455.111111 455.111111-455.111111 455.111111 203.747556 455.111111 455.111111S763.363556 839.111111 512 839.111111zM274.090667 384l40.220444 40.220444 140.8-140.8 281.6 281.571556 40.220444-40.220444L455.111111 202.979556 274.090667 384z"  horiz-adv-x="1024" />

    
    <glyph glyph-name="didian" unicode="&#58905;" d="M710.197526 384.860601l-170.674171-265.026072c0 0-16.32378-9.322319-30.366611-9.322319s-27.848255 9.521864-27.848255 9.521864L305.260937 382.91631900000004l-202.468294-76.481905 0-360.706225 199.612247 84.295871 211.036437-92.15077 202.468294 94.094028 199.612247-94.094028L915.521868 306.43441299999995 710.197526 384.860601zM753.218342 588.240661c0 134.279263-109.188818 243.089457-243.88252 243.089457-134.675282 0-243.863077-108.810195-243.863077-243.089457 0-134.23833 243.863077-447.50101 243.863077-447.50101S753.218342 454.00233 753.218342 588.240661zM403.043984 588.240661c0 57.162908 46.471404 103.496166 103.791901 103.496166 57.340963 0 103.812367-46.333258 103.812367-103.496166 0-57.121975-46.471404-103.455233-103.812367-103.455233C449.515389 484.785427 403.043984 531.117662 403.043984 588.240661z"  horiz-adv-x="1024" />

    
    <glyph glyph-name="fanhui1" unicode="&#58897;" d="M1023.726933 427.485867L136.738133 427.485867 455.338667 754.8928 403.7632 807.901867 0 392.977067 403.7632-21.981866999999966 455.338667 31.027199999999993 136.772267 358.4 1023.726933 358.4Z"  horiz-adv-x="1025" />

    
    <glyph glyph-name="wechaticon13" unicode="&#58908;" d="M856.597333 636.721778L703.331556 636.721778l0 72.462222c0 26.496-25.038222 47.175111-57.038222 47.175111L382.499556 756.359111c-32 0-57.038222-20.728889-57.038222-47.175111l0-72.462222L167.409778 636.721778c-15.744 0-28.522667-12.096-28.522667-27.057778 0-14.968889 12.778667-27.064889 28.522667-27.064889l59.996444 0 0-532.366222c0-29.12 25.585778-52.8 57.038222-52.8l459.861333 0c31.459556 0 57.038222 23.68 57.038222 52.8L801.344 582.592l55.239111 0c15.736889 0 28.515556 12.096 28.515556 27.064889C885.112889 624.6257780000001 872.334222 636.721778 856.597333 636.721778zM382.464 702.229333l263.800889 0 0-65.507556L382.464 636.721778 382.464 702.229333zM714.311111 51.470222000000035c0 0-368.974222-1.159111-400.177778-1.159111-31.203556 0-29.688889 30.556444-29.688889 30.556444L284.444444 556.636444l0 25.955556 0 0 459.918222 0 0 0c0 0 0-15.502222 0-25.955556 0-27.875556 0.455111-452.067556 0.455111-478.293333C744.824889 52.11733300000003 714.311111 51.470222000000035 714.311111 51.470222000000035zM620.145778 469.653333c0 14.890667 12.835556 27.064889 28.522667 27.064889 15.68 0 28.515556-12.181333 28.515556-27.064889l0-305.365333c0-14.890667-12.835556-27.064889-28.515556-27.064889-15.687111 0-28.522667 12.181333-28.522667 27.064889L620.145778 469.653333zM351.580444 469.653333c0 14.890667 12.835556 27.064889 28.515556 27.064889 15.687111 0 28.522667-12.181333 28.522667-27.064889l0-305.365333c0-14.890667-12.835556-27.064889-28.522667-27.064889-15.68 0-28.515556 12.181333-28.515556 27.064889L351.580444 469.653333zM485.845333 469.653333c0 14.890667 12.835556 27.064889 28.522667 27.064889 15.68 0 28.515556-12.181333 28.515556-27.064889l0-305.365333c0-14.890667-12.835556-27.064889-28.515556-27.064889-15.687111 0-28.522667 12.181333-28.522667 27.064889L485.845333 469.653333z"  horiz-adv-x="1024" />

    
    <glyph glyph-name="sun" unicode="&#59025;" d="M486.4 128.35839999999996c-126.8224 0-230.0416 103.168-230.0416 230.0416s103.168 230.0416 230.0416 230.0416 230.0416-103.168 230.0416-230.0416-103.168-230.0416-230.0416-230.0416zM486.4 537.2416000000001c-98.6112 0-178.8416-80.2304-178.8416-178.8416s80.2304-178.8416 178.8416-178.8416 178.8416 80.2304 178.8416 178.8416-80.2304 178.8416-178.8416 178.8416zM486.4 640c-14.1312 0-25.6 11.4688-25.6 25.6l0 153.6c0 14.1312 11.4688 25.6 25.6 25.6s25.6-11.4688 25.6-25.6l0-153.6c0-14.1312-11.4688-25.6-25.6-25.6zM486.4-128c-14.1312 0-25.6 11.4688-25.6 25.6l0 153.6c0 14.1312 11.4688 25.6 25.6 25.6s25.6-11.4688 25.6-25.6l0-153.6c0-14.1312-11.4688-25.6-25.6-25.6zM179.2 332.79999999999995l-153.6 0c-14.1312 0-25.6 11.4688-25.6 25.6s11.4688 25.6 25.6 25.6l153.6 0c14.1312 0 25.6-11.4688 25.6-25.6s-11.4688-25.6-25.6-25.6zM947.2 332.79999999999995l-153.6 0c-14.1312 0-25.6 11.4688-25.6 25.6s11.4688 25.6 25.6 25.6l153.6 0c14.1312 0 25.6-11.4688 25.6-25.6s-11.4688-25.6-25.6-25.6zM230.4 588.8c-6.5536 0-13.1072 2.5088-18.1248 7.4752l-102.4 102.4c-9.984 9.984-9.984 26.2144 0 36.1984s26.2144 9.984 36.1984 0l102.4-102.4c9.984-9.984 9.984-26.2144 0-36.1984-5.0176-5.0176-11.5712-7.4752-18.1248-7.4752zM128-25.600000000000023c-6.5536 0-13.1072 2.5088-18.1248 7.4752-9.984 9.984-9.984 26.2144 0 36.1984l102.4 102.4c9.984 9.984 26.2144 9.984 36.1984 0s9.984-26.2144 0-36.1984l-102.4-102.4c-5.0176-5.0176-11.5712-7.4752-18.1248-7.4752zM844.8-25.600000000000023c-6.5536 0-13.1072 2.5088-18.1248 7.4752l-102.4 102.4c-9.984 9.984-9.984 26.2144 0 36.1984s26.2144 9.984 36.1984 0l102.4-102.4c9.984-9.984 9.984-26.2144 0-36.1984-5.0176-5.0176-11.5712-7.4752-18.1248-7.4752zM742.4 588.8c-6.5536 0-13.1072 2.5088-18.1248 7.4752-9.984 9.984-9.984 26.2144 0 36.1984l102.4 102.4c9.984 9.984 26.2144 9.984 36.1984 0s9.984-26.2144 0-36.1984l-102.4-102.4c-5.0176-5.0176-11.5712-7.4752-18.1248-7.4752z"  horiz-adv-x="1024" />

    
    <glyph glyph-name="iconfontdanxuan" unicode="&#58972;" d="M512 156.44444399999998C637.675463 156.44444399999998 739.555556 258.32453699999996 739.555556 384 739.555556 509.675463 637.675463 611.555556 512 611.555556 386.324537 611.555556 284.444444 509.675463 284.444444 384 284.444444 258.32453699999996 386.324537 156.44444399999998 512 156.44444399999998ZM512-99.55555600000002C779.060361-99.55555600000002 995.555556 116.93963900000006 995.555556 384 995.555556 651.0603590000001 779.060361 867.555556 512 867.555556 244.939639 867.555556 28.444444 651.0603590000001 28.444444 384 28.444444 116.93963900000006 244.939639-99.55555600000002 512-99.55555600000002L512-99.55555600000002ZM512-42.66666699999996C276.358508-42.66666699999996 85.333333 148.35850800000003 85.333333 384 85.333333 619.6414930000001 276.358508 810.666667 512 810.666667 747.641492 810.666667 938.666667 619.6414930000001 938.666667 384 938.666667 148.35850800000003 747.641492-42.66666699999996 512-42.66666699999996L512-42.66666699999996Z"  horiz-adv-x="1024" />

    
    <glyph glyph-name="1" unicode="&#58900;" d="M814.671972 295.581228L814.671972 533.5142450000001c0 164.242691-134.860501 297.399387-301.189713 297.399387-166.351726 0-301.189713-133.157719-301.189713-297.399387l0-237.933017L91.823823 57.668677l274.107915 0c13.924127-67.876923 74.690096-118.955252 147.549497-118.955252 72.837912 0 133.582391 51.078329 147.549497 118.955252l274.106892 0L814.671972 295.581228zM513.482259-1.8191829999999527c-39.304168 0-72.390727 24.911366-84.825944 59.488883l169.650865 0C585.830007 23.091159999999945 552.743448-1.8191829999999527 513.482259-1.8191829999999527zM182.165388 117.15755899999999l90.361007 178.422645L272.526395 533.5142450000001c0 131.389446 107.885126 237.911528 240.956887 237.911528S754.416634 664.903691 754.416634 533.5142450000001l0-237.933017 90.362031-178.422645L182.165388 117.15858200000002z"  horiz-adv-x="1024" />

    
    <glyph glyph-name="lnicon34" unicode="&#58918;" d="M918.11898 325.98300300000005l-348.101983 0 0-348.101983-116.033994 0 0 348.101983-348.101983 0 0 116.033994 348.101983 0 0 348.101983 116.033994 0 0-348.101983 348.101983 0L918.11898 325.98300300000005z"  horiz-adv-x="1024" />

    
    <glyph glyph-name="link" unicode="&#59537;" d="M513 480L512 480l0 0C512.4 480 512.6 480 513 480zM737 576L640 576c0 0 52-34 63.2-96L736 480l1 0c35.2 0 63-27.8 63-63l0-64c0-35.2-27.8-65-63-65l-224 0c-35.2 0-65 29.8-65 65L448 416l-96 0 0-63c0-23 5-45 13.8-65 25.2-56.4 81.8-96 147.2-96l224 0c88.4 0 159 72.6 159 161l0 64C896 505.4 825.4 576 737 576zM659.2 480c-24.2 56.6-80.2 96-146.2 96l-224 0c-88.4 0-161-70.6-161-159l0-64c0-88.4 72.6-161 161-161L384 192c0 0-51.6 34-64.2 96l-30.8 0c-35.2 0-65 29.8-65 65l0 64c0 35.2 29.8 63 65 63L512 480l1 0c35.2 0 63-27.8 63-63l0-64c0-0.4 0-0.6 0-1l96 0c0 0.4 0 0.6 0 1l0 64C672 439.4 667.4 460.8 659.2 480z"  horiz-adv-x="1024" />

    
    <glyph glyph-name="huoche" unicode="&#58969;" d="M819.017954 181.64836200000002L819.017954 603.006969c0 63.446008-52.274574 115.720581-115.720581 115.720581L317.770855 718.727551c-63.446008 0-115.720581-52.274574-115.720581-115.720581l0-421.358607c0-57.755402 44.054355-107.501386 99.069343-115.721605l-101.808734-126.683261 110.239753 0 110.239753 123.942847 192.658881 0 101.808734-123.942847 104.759949 0-93.588515 126.683261C777.704013 76.88636699999995 819.017954 123.680113 819.017954 181.64836200000002L819.017954 181.64836200000002zM323.252707 129.16094099999998c-27.612894 0-52.275597 21.922289-52.275597 52.27662 0 27.611871 22.13309 52.274574 52.275597 52.274574 27.611871 0 52.273551-22.132066 52.273551-52.274574C375.526257 154.034445 353.604992 129.16094099999998 323.252707 129.16094099999998L323.252707 129.16094099999998zM692.33674 129.16094099999998c-27.612894 0-52.486398 22.135136-52.486398 52.487422 0 27.40107 22.13309 52.273551 52.486398 52.273551 27.611871 0 52.274574-22.132066 52.274574-52.273551C744.611314 154.034445 722.478224 129.16094099999998 692.33674 129.16094099999998L692.33674 129.16094099999998zM769.483794 407.397896c0-33.092699-24.87248-57.754379-57.754379-57.754379L312.291051 349.643518c-33.092699 0-57.754379 24.87248-57.754379 57.754379L254.536672 534.080134c0 33.092699 24.87248 57.755402 57.754379 57.755402l396.486126 0c33.093722 0 57.755402-24.873504 57.755402-57.755402l0-126.681214L769.483794 407.39892zM441.712679 746.130667l140.383284 0c22.13309 0 41.313941 19.180851 41.313941 41.313941 0 22.132066-19.181875 41.313941-41.313941 41.313941L441.712679 828.75855c-22.132066 0-41.313941-19.181875-41.313941-41.313941C400.399761 765.311519 419.580612 746.130667 441.712679 746.130667L441.712679 746.130667z"  horiz-adv-x="1024" />

    
    <glyph glyph-name="tianjiajiuzhenren" unicode="&#58989;" d="M847.237757 79.23582199999998l0 121.906359-60.950599 0 0-121.906359-121.906359 0 0-60.95232 121.906359 0 0-121.904639 60.950599 0 0 121.904639 121.906359 0 0 60.95232L847.237757 79.23582199999998zM728.190393 244.56896700000004c-31.428298 22.287084-65.906534 40.382008-102.762105 53.62077 95.717831 51.332886 160.86059 152.379939 160.86059 268.666361 0 168.286752-136.478287 304.763318-304.765038 304.763318-168.285031 0-304.759877-136.476566-304.759877-304.763318 0-116.286422 65.142759-217.333474 160.85543-268.666361C172.761026 239.14169400000003 54.857604 81.52370599999995 54.857604-103.62113599999998l60.95232 0c0 49.430331 9.617713 97.333112 28.667355 142.382059 18.38048 43.524838 44.761671 82.668293 78.379801 116.286422 33.61985 33.618129 72.763304 59.999321 116.286422 78.379801 45.048947 19.047922 92.951728 28.763687 142.380338 28.763687 49.430331 0 97.334832-9.619433 142.382059-28.763687 16.667147-7.047714 32.761463-15.332262 48.095445-24.667859C688.570439 223.427545 707.52375 235.524086 728.190393 244.56896700000004zM576.381565 342.189355c-29.998801-12.667651-61.903597-19.142534-94.857725-19.142534-32.950687 0-64.855484 6.474883-94.857725 19.142534-29.047523 12.285764-55.141439 29.809577-77.521414 52.285885-22.383416 22.476308-40.000121 48.477332-52.285885 77.523135-12.667651 29.998801-19.142534 61.905318-19.142534 94.857725 0 32.952407 6.474883 64.857204 19.142534 94.857725 12.285764 29.049243 29.809577 55.144879 52.285885 77.524855 22.474587 22.379976 48.475612 39.998401 77.521414 52.285885 30.000521 12.665931 61.905318 19.142534 94.857725 19.142534 32.954127 0 64.858924-6.476603 94.857725-19.142534 29.049243-12.287484 55.144879-29.905909 77.523135-52.285885 22.379976-22.381696 40.001841-48.477332 52.285885-77.524855 12.665931-29.998801 19.144254-61.903597 19.144254-94.857725 0-32.950687-6.478323-64.857204-19.144254-94.857725-12.284044-29.047523-29.905909-55.143159-52.285885-77.523135C631.524724 372.00065199999995 605.429087 354.47511799999995 576.381565 342.189355z"  horiz-adv-x="1024" />

    
    <glyph glyph-name="canyin" unicode="&#58885;" d="M383.616 881.792l0-309.824L383.488 571.9680000000001 344.832 571.9680000000001 344.832 881.792l-77.44 0 0-309.824L228.608 571.9680000000001 228.608 881.792 151.232 881.792 151.104 533.056c0.192-42.624 34.752-77.312 77.44-77.312l0.064-464.768 0-77.376c0-21.44 17.408-38.72 38.72-38.72l77.44 0c21.44 0 38.784 17.28 38.784 38.72l0 309.76c0 0-0.064 0-0.064 0.064l0 232.32c42.816 0 77.44 34.752 77.44 77.44l0.064-38.72L460.992 881.792 383.616 881.792zM151.104 515.9680000000001L151.104 533.056 151.104 533.248 151.104 515.9680000000001zM693.376 881.856c-64.192 0-116.16-52.032-116.16-116.224l0-425.984 77.44 0 0-31.68 0-84.544 0-232.384 0-77.376c0-21.44 17.344-38.72 38.656-38.72l77.44 0c21.376 0 38.656 17.28 38.656 38.72L809.408-8.960000000000036l0 232.384L809.408 339.648 809.408 765.6320000000001C809.472 829.824 757.504 881.856 693.376 881.856"  horiz-adv-x="1024" />

    
    <glyph glyph-name="loading" unicode="&#58939;" d="M843.285149 181.17559500000004c0-3.034103 2.459005-5.493108 5.493108-5.493108 3.034103 0 5.493108 2.459005 5.493108 5.493108l0 0c0 3.035126-2.459005 5.494131-5.493108 5.494131S843.285149 184.21072100000004 843.285149 181.17559500000004L843.285149 181.17559500000004 843.285149 181.17559500000004zM722.039737 56.06720199999995L722.039737 56.06720199999995c0-6.036483 4.89038-10.926864 10.92277-10.926864 6.036483 0 10.92584 4.89038 10.92584 10.926864l0 0 0 0c0 6.031367-4.889357 10.920724-10.92584 10.920724C726.930117 66.98894900000005 722.039737 62.09959200000003 722.039737 56.06720199999995 722.039737 50.030718999999976 722.039737 56.06720199999995 722.039737 56.06720199999995L722.039737 56.06720199999995zM558.608527-8.331502999999998c0-9.066493 7.348362-16.414855 16.414855-16.414855 9.06547 0 16.413831 7.348362 16.413831 16.414855 0 9.06547-7.348362 16.414855-16.413831 16.414855C565.956889 8.084375000000023 558.608527 0.7349900000000389 558.608527-8.331502999999998L558.608527-8.331502999999998zM382.679679 0.2970149999999876L382.679679 0.2970149999999876c0-12.063757 9.784854-21.843494 21.848611-21.843494s21.848611 9.779737 21.848611 21.843494l0 0 0 0c0 12.06785-9.784854 21.847587-21.848611 21.847587S382.679679 12.36588800000004 382.679679 0.2970149999999876C382.679679-11.76571899999999 382.679679 0.2970149999999876 382.679679 0.2970149999999876L382.679679 0.2970149999999876zM226.610134 80.38709800000004c0-15.101953 12.238742-27.340695 27.342742-27.340695 15.09786 0 27.336602 12.238742 27.336602 27.340695l0 0c0 15.098883-12.238742 27.337625-27.336602 27.337625C238.848876 107.72472300000004 226.610134 95.48598100000004 226.610134 80.38709800000004L226.610134 80.38709800000004 226.610134 80.38709800000004zM118.520347 216.54208000000006c0-18.132986 14.697747-32.833803 32.830733-32.833803s32.833803 14.70184 32.833803 32.833803c0 18.127869-14.70184 32.830733-32.833803 32.830733S118.520347 234.66994999999997 118.520347 216.54208000000006L118.520347 216.54208000000006zM77.963653 383.71756700000003c0-21.13332 17.128099-38.262442 38.263465-38.262442s38.263465 17.128099 38.263465 38.262442c0 21.13025-17.128099 38.259372-38.263465 38.259372S77.963653 404.847817 77.963653 383.71756700000003L77.963653 383.71756700000003zM111.336738 549.8063030000001c0-24.169469 19.593244-43.756573 43.757596-43.756573s43.756573 19.587104 43.756573 43.756573c0 24.164353-19.59222 43.751457-43.756573 43.751457S111.336738 573.970656 111.336738 549.8063030000001L111.336738 549.8063030000001zM211.462133 683.7233160000001c0-27.198455 22.051225-49.244564 49.249681-49.244564s49.244564 22.046109 49.244564 49.244564l0 0c0 27.198455-22.046109 49.249681-49.244564 49.249681C233.512335 732.9719729999999 211.462133 710.921771 211.462133 683.7233160000001L211.462133 683.7233160000001 211.462133 683.7233160000001zM358.479511 760.433418c0-30.200836 24.481577-54.677297 54.677297-54.677297 30.200836 0 54.683437 24.476461 54.683437 54.677297 0 30.196743-24.482601 54.67832-54.683437 54.67832C382.960065 815.112762 358.479511 790.631184 358.479511 760.433418L358.479511 760.433418zM523.604292 765.1989550000001c0-33.229822 26.936489-60.171428 60.167335-60.171428 33.235962 0 60.171428 26.941606 60.171428 60.171428l0 0c0 33.230845-26.935466 60.171428-60.171428 60.171428C550.540781 825.371406 523.604292 798.430824 523.604292 765.1989550000001L523.604292 765.1989550000001 523.604292 765.1989550000001zM674.783457 697.181839c0-36.228109 29.371958-65.600067 65.605184-65.600067 36.228109 0 65.600067 29.371958 65.600067 65.600067 0 36.232203-29.371958 65.60416-65.600067 65.60416C704.155415 762.785999 674.783457 733.414041 674.783457 697.181839L674.783457 697.181839zM782.211165 569.416943c0-39.263236 31.830963-71.094198 71.094198-71.094198 39.266305 0 71.093175 31.830963 71.093175 71.094198 0 39.266305-31.825846 71.097268-71.093175 71.097268C814.042127 640.515235 782.211165 608.684272 782.211165 569.416943L782.211165 569.416943zM824.940338 403.931958c0-42.297338 34.289967-76.587306 76.587306-76.587306 42.297338 0 76.585259 34.289967 76.585259 76.587306 0 42.301432-34.288944 76.587306-76.585259 76.587306C859.230306 480.518241 824.940338 446.23339 824.940338 403.931958L824.940338 403.931958z"  horiz-adv-x="1024" />

    
    <glyph glyph-name="che" unicode="&#58913;" d="M1024 428.8c-6.4 25.6-38.4 44.8-64 44.8l-172.8 0C774.4 569.6 684.8 640 576 640L524.8 640 492.8 640l-128 0C262.4 640 172.8 569.6 160 473.6L70.4 473.6C32 473.6 0 441.6 0 403.2l0-102.4c0-38.4 38.4-70.4 70.4-70.4l25.6 0L96 262.4 70.4 262.4c-19.2 0-38.4 19.2-38.4 38.4L32 403.2c0 19.2 19.2 38.4 38.4 38.4l83.2 0 339.2 0 0-179.2L396.8 262.4l0-32 96 0 32 0 128 0L652.8 262.4l-128 0L524.8 441.6l268.8 0L960 441.6c12.8 0 25.6-12.8 32-25.6 0 0 0 0 0 0 0 0 0 0 0-6.4 0 0 0-6.4 0-6.4l0-102.4c0-19.2-12.8-38.4-32-38.4l-19.2 0 0-32L960 230.4c38.4 0 64 38.4 64 70.4L1024 403.2c0 0 0 6.4 0 6.4 0 0 0 0 0 0C1024 416 1024 422.4 1024 428.8zM192 473.6c12.8 76.8 89.6 134.4 179.2 134.4l128 0 0-134.4L192 473.6zM524.8 473.6 524.8 608 576 608c89.6 0 166.4-57.6 179.2-134.4L524.8 473.6zM787.2 364.8c-19.2 0-32-6.4-51.2-12.8-25.6-12.8-44.8-32-57.6-57.6-6.4-12.8-12.8-25.6-12.8-38.4 0 0 0-6.4 0-6.4 0 0 0-6.4 0-6.4 6.4-64 57.6-108.8 115.2-108.8s115.2 51.2 115.2 108.8c0 0 0 6.4 0 6.4 0 0 0 6.4 0 6.4C902.4 320 851.2 364.8 787.2 364.8zM876.8 243.2c0-44.8-38.4-83.2-89.6-83.2S704 192 704 243.2c0 0 0 6.4 0 6.4 0 0 0 6.4 0 6.4 0 12.8 6.4 19.2 6.4 32 6.4 19.2 25.6 32 44.8 44.8 12.8 6.4 25.6 6.4 38.4 6.4 44.8 0 83.2-38.4 89.6-83.2C876.8 249.6 876.8 249.6 876.8 243.2 876.8 243.2 876.8 243.2 876.8 243.2zM787.2 249.6m-32 0a0.5 0.5 0 1 0 64 0 0.5 0.5 0 1 0-64 0ZM249.6 364.8c-19.2 0-32-6.4-51.2-12.8C172.8 345.6 153.6 320 140.8 294.4 134.4 281.6 128 268.8 128 256c0 0 0-6.4 0-6.4 0 0 0-6.4 0-6.4 6.4-64 57.6-108.8 115.2-108.8s115.2 51.2 115.2 108.8c0 0 0 6.4 0 6.4 0 0 0 6.4 0 6.4C358.4 320 307.2 364.8 249.6 364.8zM332.8 243.2c0-44.8-38.4-83.2-89.6-83.2S160 192 160 243.2c0 0 0 6.4 0 6.4 0 0 0 6.4 0 6.4 0 12.8 6.4 19.2 6.4 32C172.8 300.8 192 320 211.2 326.4c12.8 6.4 25.6 6.4 38.4 6.4 44.8 0 83.2-38.4 89.6-83.2C332.8 249.6 332.8 249.6 332.8 243.2 332.8 243.2 332.8 243.2 332.8 243.2zM243.2 249.6m-32 0a0.5 0.5 0 1 0 64 0 0.5 0.5 0 1 0-64 0Z"  horiz-adv-x="1024" />

    
    <glyph glyph-name="sousuo" unicode="&#58938;" d="M467.078 179.08500000000004c-157.322 0-284.859 125.325-284.859 280.133 0 154.818 127.537 280.377 284.859 280.377 157.323 0 284.872-125.558 284.872-280.377 0-154.808-127.549-280.133-284.872-280.133v0zM922.976 34.025999999999954l-206.539 203.338c54.051 58.791 87.294 136.317 87.294 221.855 0 183.079-150.703 331.401-336.652 331.401-185.936 0-336.651-148.322-336.651-331.401 0-182.847 150.716-331.157 336.651-331.157 80.335 0 154.026 27.772 211.889 74.033l207.42-204.073c10.111-10.015 26.501-10.015 36.588 0 10.137 9.744 10.137 25.989 0 36.004v0z"  horiz-adv-x="1024" />

    
    <glyph glyph-name="point-out" unicode="&#59008;" d="M951.416891 385.359974c0.01535 0.915859-0.01228 1.803066-0.061398 2.676969C946.153004 615.17408 777.75876 797.214113 552.980343 824.435081 326.59636 851.850477 117.871571 683.06226 76.016301 464.272231c-42.707684-223.24755 100.773148-439.786305 314.585815-503.817644 219.211631-65.649186 446.548312 61.211107 531.320021 266.400373 20.297278 49.128931 28.308743 103.072517 29.440519 155.944701C951.405635 383.63570300000003 951.432241 384.485047 951.416891 385.359974zM510.128373 5.649929000000043c-209.705116-3.612271-376.188848 175.455057-379.706975 379.710045-3.612271 209.704093 175.450964 376.191918 379.706975 379.710045 209.707163 3.612271 376.196011-175.450964 379.714138-379.710045C886.23024 175.66713800000002 719.820186 9.262200000000007 510.128373 5.649929000000043zM479.344253 611.390917c0-104.268762 0-208.5365 0-312.805262 0-39.70735 61.574381-39.70735 61.574381 0 0 104.268762 0 208.5365 0 312.805262C540.918633 651.099291 479.344253 651.099291 479.344253 611.390917zM510.131443 218.33593599999995c-16.783245 0-30.78719-14.004969-30.78719-30.78719 0-15.791661 0-31.582299 0-47.37396 0-16.783245 14.004969-30.78719 30.78719-30.78719 16.783245 0 30.78719 14.004969 30.78719 30.78719 0 15.791661 0 31.582299 0 47.37396C540.918633 204.33199100000002 526.914688 218.33593599999995 510.131443 218.33593599999995z"  horiz-adv-x="1024" />

    
    <glyph glyph-name="zaochen" unicode="&#59359;" d="M512-128C229.229568-128 0 101.22956799999997 0 384S229.229568 896 512 896s512-229.229568 512-512S794.770432-128 512-128zM273.097728 110.93299200000001l477.805568 0c18.988032 0 34.163712 15.285248 34.163712 34.132992 0 18.98496-15.295488 34.132992-34.163712 34.132992L273.097728 179.19897600000002c-18.988032 0-34.163712-15.281152-34.163712-34.132992C238.932992 126.08511999999996 254.22848 110.93299200000001 273.097728 110.93299200000001zM292.93568 534.7973119999999l-72.86784 72.86784c-6.64576 6.64576-17.292288 6.382592-24.015872-0.340992l-23.9104-23.9104c-7.017472-7.0144-6.88128-17.482752-0.345088-24.019968l72.86784-72.86784c6.648832-6.64576 17.292288-6.382592 24.019968 0.340992l23.9104 23.9104C299.609088 517.792768 299.475968 528.26112 292.93568 534.7973119999999zM546.132992 742.724608c0 9.403392-7.713792 16.7424-17.226752 16.7424l-33.81248 0c-9.919488 0-17.226752-7.49568-17.226752-16.7424l0-103.048192c0-9.40032 7.713792-16.7424 17.226752-16.7424l33.81248 0c9.919488 0 17.226752 7.49568 17.226752 16.7424L546.132992 742.724608zM837.721088 597.5480319999999l-23.907328 23.9104c-7.0144 7.017472-17.482752 6.88128-24.019968 0.345088l-72.86784-72.86784c-6.648832-6.64576-6.382592-17.292288 0.340992-24.019968l23.9104-23.9104c7.0144-7.0144 17.47968-6.878208 24.019968-0.340992l72.86784 72.86784C844.710912 580.17792 844.448768 590.8244480000001 837.721088 597.5480319999999zM853.251072 315.73299199999997L748.51328 315.73299199999997c1.594368 11.148288 2.419712 22.545408 2.419712 34.132992C750.932992 481.825792 643.959808 588.8 512 588.8S273.067008 481.825792 273.067008 349.86700800000006c0-11.588608 0.826368-22.985728 2.419712-34.132992L170.748928 315.734016c-19.213312 0-34.214912-15.281152-34.214912-34.132992 0-18.981888 15.31904-34.132992 34.214912-34.132992l682.503168 0c19.213312 0 34.214912 15.285248 34.214912 34.132992C887.467008 300.58496 872.147968 315.73299199999997 853.251072 315.73299199999997zM344.747008 315.73299199999997c-2.239488 11.02848-3.412992 22.443008-3.412992 34.132992 0 94.256128 76.41088 170.667008 170.667008 170.667008s170.667008-76.41088 170.667008-170.667008c0-11.691008-1.174528-23.104512-3.412992-34.132992L344.747008 315.73299199999997z"  horiz-adv-x="1024" />

    
    <glyph glyph-name="guanbi1" unicode="&#58902;" d="M511.829108 782.293285c219.430618 0 397.952524-178.520883 397.952524-397.952524S731.259726-13.610739999999964 511.829108-13.610739999999964 113.876584 164.90912000000003 113.876584 384.341784 292.39849 782.293285 511.829108 782.293285M511.829108 832.038246c-247.25636 0-447.696462-200.441125-447.696462-447.696462 0-247.25636 200.440102-447.696462 447.696462-447.696462s447.696462 200.440102 447.696462 447.696462C959.52557 631.597121 759.085468 832.038246 511.829108 832.038246L511.829108 832.038246z"  horiz-adv-x="1024" />

    
    <glyph glyph-name="kuaiyule" unicode="&#59245;" d="M668.8 768c-62.08 0-118.4-24.32-160-63.36l330.88-328.96c39.68 41.6 64 97.92 64 159.36C903.04 663.6800000000001 798.08 768 668.8 768zM434.56 535.04c0-21.76 3.2-42.88 8.96-63.36l161.92-161.28c20.48-5.76 41.6-8.96 63.36-8.96 49.28 0 94.72 15.36 132.48 40.96L475.52 666.88C449.92 629.76 434.56 584.3199999999999 434.56 535.04zM184.32 188.15999999999997c-3.84-3.2-7.04-7.04-10.24-10.88-8.96-11.52-16-24.96-19.2-39.68-1.28-7.04-2.56-14.08-2.56-21.12 0-14.08 3.2-27.52 8.32-39.68 0.64-0.64 0.64-1.92 1.28-2.56l0.64-3.84 0.64-0.64-42.24-42.24 28.16-28.16 40.96 40.32c0.64-0.64 0.64-0.64 1.28-1.28 16-11.52 35.84-18.56 56.96-18.56 10.88 0 21.12 1.92 30.72 5.12 10.24 3.2 19.84 8.32 28.16 14.72 0 0 0 0 0 0l0 0c3.2 2.56 6.4 5.12 8.96 7.68l257.28 224L414.08 430.72 184.32 188.15999999999997z"  horiz-adv-x="1024" />

    
    <glyph glyph-name="filter" unicode="&#59058;" d="M889.6 718.933333L618.666667 448l0-247.466667c0-8.533333-6.4-17.066667-12.8-19.2 0 0 0-2.133333-2.133333-2.133333L445.866667 21.33333300000004c-4.266667-6.4-10.666667-12.8-19.2-12.8 0 0 0 0 0 0-6.4 0-10.666667 2.133333-17.066667 6.4-2.133333 2.133333-2.133333 2.133333-2.133333 4.266667C405.333333 25.600000000000023 405.333333 27.733333000000016 405.333333 32L405.333333 450.133333 134.4 721.066667c0 0 0 0 0 0C130.133333 725.333333 128 729.6 128 736 128 742.4 130.133333 746.666667 134.4 750.933333c0 0 0 0 0 0 4.266667 4.266667 12.8 6.4 19.2 6.4L874.666667 757.333333c0 0 2.133333 0 2.133333 0 2.133333 0 4.266667 0 6.4-2.133333 2.133333 0 2.133333-2.133333 2.133333-2.133333 2.133333 0 2.133333-2.133333 4.266667-2.133333C898.133333 742.4 898.133333 727.466667 889.6 718.933333zM202.666667 714.666667l238.933333-238.933333c4.266667-4.266667 6.4-10.666667 6.4-17.066667L448 85.33333300000004l125.866667 125.866667c0 0 2.133333 2.133333 2.133333 2.133333L576 458.666667c0 0 0 2.133333 0 2.133333 0 4.266667 2.133333 10.666667 6.4 14.933333L823.466667 714.666667 202.666667 714.666667z"  horiz-adv-x="1024" />

    
    <glyph glyph-name="gengduo-copy-copy" unicode="&#58887;" d="M540.092 440.935l-27.997 28.027-0.041-0.041-0.127 0.131-28.142-28.112 0.084-0.084-451.87-451.402 28.055-28.078 451.88 451.413 451.418-451.88 28.084 28.054-451.344 451.973zM60.619 299.44100000000003l451.883 451.418 451.412-451.88 28.086 28.049-479.608 479.997-28.043-28.012 0.084-0.084-451.87-451.403 28.056-28.086zM60.619 299.44100000000003z"  horiz-adv-x="1024" />

    
    <glyph glyph-name="shanchu1" unicode="&#58996;" d="M512.002047 671.786449c-176.352497 0-319.306326-142.953829-319.306326-319.306326 0-176.349427 142.953829-319.303256 319.306326-319.303256 176.334077 0 319.303256 142.953829 319.303256 319.303256C831.30428 528.832619 688.336124 671.786449 512.002047 671.786449zM671.651117 312.567088L352.34786 312.567088l0 79.82914L671.651117 392.396227 671.651117 312.567088z"  horiz-adv-x="1024" />

    
    <glyph glyph-name="moono" unicode="&#59285;" d="M794.285714 151.42857100000003q-30.857143-5.142857-62.857143-5.142857-104 0-192.571429 51.428571t-140 140-51.428571 192.571429q0 109.714286 59.428571 204-114.857143-34.285714-187.714286-130.857143t-72.857143-219.428571q0-74.285714 29.142857-142t78-116.571429 116.571429-78 142-29.142857q82.285714 0 156.285714 35.142857t126 98z m116 48.571429q-53.714286-116-162-185.428571t-236.285714-69.428571q-89.142857 0-170.285714 34.857143t-140 93.714286-93.714286 140-34.857143 170.285714q0 87.428571 32.857143 167.142857t89.142857 138 134.571429 94 165.714286 39.142857q25.142857 1.142857 34.857143-22.285714 10.285714-23.428571-8.571429-41.142857-49.142857-44.571429-75.142857-103.714286t-26-124.857143q0-84.571429 41.714286-156t113.142857-113.142857 156-41.714286q67.428571 0 130.285714 29.142857 23.428571 10.285714 41.142857-7.428571 8-8 10-19.428571t-2.571429-21.714286z"  horiz-adv-x="1024" />

    
    <glyph glyph-name="qiche" unicode="&#58984;" d="M937.156 507.537l-84.171 0c-4.002 0-7.685-1.192-10.986-2.974l-37.946 114.29c-12.142 65.025-57.898 96.378-114.136 96.378l-356.456 0c-64.554 0-103.735-42.116-114.136-96.315l-38.047-114.678c-3.462 2.006-7.389 3.3-11.655 3.3l-84.189 0c-12.935 0-23.436-10.482-23.436-23.454l0-20.337c0-12.934 10.501-23.436 23.436-23.436l31.873-5.445c-10.061-19.67-15.806-42.173-15.806-68.357l-11.799-134.906c0-3.908 0.287-7.892 0.772-11.9-0.446-2.447-0.772-4.999-0.772-7.61l0-162.296c0-23.091 18.743-41.81 41.834-41.81l63.847 0c23.11 0 41.828 18.718 41.828 41.81l0 52.168 548.93 0 0-52.167c0-23.091 18.724-41.81 41.834-41.81l63.848 0c23.091 0 41.829 18.718 41.829 41.81l0 162.296c0 2.615-0.321 5.163-0.772 7.61 0.465 4.008 0.772 7.992 0.772 11.9l-11.799 134.901c0 26.251-5.766 48.773-15.864 68.506l31.165 5.302c12.953 0 23.436 10.501 23.436 23.436l0 20.337c0.004 12.972-10.479 23.453-23.433 23.453zM247.473 531.556l27.865 74.166 0.388 1.738c2.772 14.998 8.964 17.67 18.11 29.25l436.23 0c9.228-11.9 14.98-14.921 17.527-29.088l28.31-76.068 10.363-41.322c-2.352-30.235-38.678-54.116-68.908-54.116l-411.337 0c-30.255 0-66.581 23.88-68.928 54.116l10.383 41.322zM267.001 178.86400000000003c-34.991 0-63.339 28.354-63.339 63.344s28.348 63.339 63.339 63.339c34.991 0 63.344-28.348 63.344-63.339s-28.353-63.344-63.344-63.344zM620.771 225.59199999999998l-0.006 0c0-10.42-8.438-18.839-18.844-18.839l-177.697 0c-10.4 0-18.844 8.419-18.844 18.839l0 52.942c0 10.4 8.438 18.82 18.844 18.82l177.698 0c10.405 0 18.848-8.419 18.848-18.82l0-52.942zM756.356 178.86400000000003c-34.991 0-63.362 28.354-63.362 63.344s28.372 63.339 63.362 63.339c34.991 0 63.339-28.348 63.339-63.339 0.006-34.991-28.348-63.344-63.339-63.344z"  horiz-adv-x="1024" />

    
    <glyph glyph-name="zaoshang-copy" unicode="&#58932;" d="M1003.454 126.56700000000001h-982.908c-12.923 0-23.402 10.48-23.402 23.408v46.8c0 12.927 10.48 23.402 23.402 23.402h167.797c-2.34 15.296-3.979 30.821-3.979 46.81 0 180.944 146.687 327.635 327.635 327.635s327.635-146.691 327.635-327.635c0-15.988-1.638-31.515-3.979-46.81h167.797c12.923 0 23.402-10.476 23.402-23.402v-46.8c0-12.927-10.48-23.408-23.403-23.408zM512 501.012c-129.247 0-234.026-104.778-234.026-234.026 0-16.143 2.204-31.66 5.406-46.81h457.239c3.202 15.151 5.406 30.667 5.406 46.81 0 129.248-104.778 234.026-234.026 234.026zM826.414 515.204c-9.136-9.136-23.956-9.136-33.097 0l-33.097 33.102c-9.141 9.136-9.141 23.95 0 33.097l99.287 99.287c9.141 9.141 23.961 9.141 33.097 0l33.097-33.097c9.141-9.141 9.141-23.956 0-33.091l-99.287-99.297zM535.402 641.429h-46.804c-12.923 0-23.402 10.48-23.402 23.402v140.415c0 12.923 10.48 23.397 23.402 23.397h46.804c12.923 0 23.402-10.476 23.402-23.397v-140.415c0-12.924-10.48-23.402-23.402-23.402zM230.683 515.204c-9.141-9.136-23.961-9.136-33.097 0l-99.287 99.297c-9.141 9.136-9.141 23.95 0 33.091l33.097 33.097c9.136 9.141 23.956 9.141 33.097 0l99.287-99.287c9.141-9.146 9.141-23.961 0-33.097l-33.097-33.102zM160.961 32.956999999999994h702.077c12.923 0 23.402-10.476 23.402-23.397v-46.804c0-12.923-10.48-23.397-23.402-23.397h-702.077c-12.923 0-23.402 10.476-23.402 23.397v46.804c-0.001 12.923 10.479 23.397 23.402 23.397z"  horiz-adv-x="1024" />

    
    <glyph glyph-name="jiantou" unicode="&#58886;" d="M0.061419 362.69783500000005L-0.001002 403.630083 952.226347 405.149693 952.288769 364.217445ZM848.569523 481.316419l175.520549-117.109208L848.569523 364.207212 848.569523 481.316419zM848.569523 481.316419"  horiz-adv-x="1041" />

    
    <glyph glyph-name="qita" unicode="&#58955;" d="M256 383.57333300000005m-85.76 0a2.01 2.01 0 1 1 171.52 0 2.01 2.01 0 1 1-171.52 0ZM512.426667 383.57333300000005m-85.76 0a2.01 2.01 0 1 1 171.52 0 2.01 2.01 0 1 1-171.52 0ZM768 383.57333300000005m-85.76 0a2.01 2.01 0 1 1 171.52 0 2.01 2.01 0 1 1-171.52 0Z"  horiz-adv-x="1024" />

    
    <glyph glyph-name="feiji-big" unicode="&#58891;" d="M145.756 625.361l162.743-162.615-90.028-463.419 77.917-76.455 154.157 415.895 209.804-188.636-38.229-194.372 36.812-35.893 130.874 192.006 172.735 106.951-36.679 36.037-185.235-25.485-190.697 201.632 412.497 147.526-77.919 76.496-459.702-79.605-163.39 163.659c-74.028 72.567-132.563 79.2-165.33 46.793-32.666-32.019-24.078-87.658 49.676-160.513z"  horiz-adv-x="1024" />

    
    <glyph glyph-name="bianji" unicode="&#59019;" d="M269.47528 141.47191099999998L375.712126 141.47191099999998 914.093935 675.970365 807.857089 783.591774 269.47528 249.09331999999995 269.47528 141.47191099999998ZM1015.472987 776.656848C1026.837846 788.1698240000001 1026.837846 806.767706 1015.472987 818.280681L947.283831 887.358532C935.918972 898.871507 917.560355 898.871507 906.195495 887.358532L852.868077 833.33611 962.145571 722.634427 1015.472987 776.656848 1015.472987 776.656848ZM482.180238 759.233573L562.967917 842.098881 0.003368 842.098881 0.003368-128 970.102249-128 970.102249 461.130272 885.207818 383.78644399999996 885.207818-41.300107000000025 80.230546-41.300107000000025 80.230546 759.233573Z"  horiz-adv-x="1024" />

    
    <glyph glyph-name="01" unicode="&#58892;" d="M491.319 617.783l74.066-150.089 165.632-24.065-119.852-116.823 28.287-164.956-148.142 77.883-148.142-77.883 28.29 164.956-119.852 116.823 165.63 24.065zM491.319 468.32l25.51-51.685 57.038-8.29-41.274-40.236 9.742-56.811-51.019 26.819-51.019-26.819 9.75 56.811-41.274 40.236 57.036 8.29z"  horiz-adv-x="1024" />

    
    <glyph glyph-name="queren1" unicode="&#59007;" d="M949.01468 681.229518c-10.865465 10.865465-28.467355 10.865465-39.333844 0L373.977995 146.640034 114.343723 406.328541c-10.865465 10.865465-28.467355 10.865465-39.333844 0s-10.865465-28.467355 0-39.333844L349.802386 92.14897900000005c1.113357-1.847068 1.983167-3.802606 3.559059-5.378497 5.432733-5.432733 12.576433-8.149611 19.693528-8.149611s14.207583 2.716878 19.639293 8.149611l556.267203 555.125193C959.853539 652.707928 959.853539 670.364053 949.01468 681.229518z"  horiz-adv-x="1024" />

    
    <glyph glyph-name="typecar111" unicode="&#58924;" d="M298.596144 228.575138m-77.704756 0a75.935 75.935 0 1 0 155.409512 0 75.935 75.935 0 1 0-155.409512 0ZM783.643282 228.575138m-77.704756 0a75.935 75.935 0 1 0 155.409512 0 75.935 75.935 0 1 0-155.409512 0ZM868.375082 491.120716l-83.835384 1.506307c-59.220776 89.282443-136.106888 125.866662-240.476957 125.866662-123.480312 0-222.116797-44.24162-279.905968-108.662839l-73.474408-15.669888c-74.361615-16.884552-122.796744-54.746882-122.435517-112.911606l-0.361227-44.165896c0-53.608965 41.336454-98.092086 110.23259-107.646696 3.908006 63.782675 56.863079 114.298186 121.628128 114.298186 65.056692 0 118.202099-50.971905 121.682363-115.160833l241.362116 0.494257c3.726881 63.955614 56.762795 114.666576 121.654734 114.666576 63.311954 0 115.340935-48.275493 121.293507-110.026906 26.838252 8.16189 50.376341 28.086685 50.376341 60.396555l0 117.680213C956.115402 459.881225 925.755953 486.487186 868.375082 491.120716zM528.276197 459.733868c-7.346315-0.553609-14.809287-1.121544-22.373567-1.707898-94.869694-7.354502-205.596542 22.511713-204.038046 28.822442 6.837732 27.681456 97.143481 76.520791 206.67306 83.464947 10.161431 0.64366 19.85521 0.974188 29.119201 1.003863L528.276197 459.733868zM562.454624 462.265528l8.735965 107.664092c73.259514-6.754844 113.223714-37.981033 133.940548-92.542696C706.973088 472.534406 646.20405 468.399225 562.454624 462.265528z"  horiz-adv-x="1024" />

    
    <glyph glyph-name="gongjiaoche" unicode="&#59214;" d="M932.244 633.442l-19.133 0 0 95.666c0 31.57-23.103 68.956-51.335 83.067 0 0-101.731 50.866-350.465 50.866s-350.454-50.866-350.454-50.866c-28.24-14.111-51.344-51.497-51.344-83.067l0-95.666-19.133 0c-31.57 0-57.399-25.829-57.399-57.399l0-57.399c0-31.57 25.829-57.399 57.399-57.399l19.133 0 0-392.233c0-24.863 16.043-46.092 38.267-54.022l0-32.077c0-42.094 34.439-76.533 76.533-76.533s76.533 34.441 76.533 76.533l0 28.7 420.933 0 0-28.7c0-42.094 34.439-76.533 76.533-76.533s76.533 34.441 76.533 76.533l0 32.077c22.223 7.931 38.267 29.169 38.267 54.022l0 392.233 19.133 0c31.57 0 57.399 25.829 57.399 57.399l0 57.399c0 31.569-25.829 57.399-57.399 57.399zM319.978 767.375c0 10.523 8.61 19.133 19.133 19.133l344.399 0c10.523 0 19.133-8.61 19.133-19.133l0-38.267c0-10.523-8.61-19.133-19.133-19.133l-344.399 0c-10.523 0-19.133 8.61-19.133 19.133l0 38.267zM233.878 88.14300000000003c-26.423 0-47.833 21.429-47.833 47.833s21.41 47.833 47.833 47.833c26.414 0 47.833-21.429 47.833-47.833s-21.419-47.833-47.833-47.833zM788.745 88.14300000000003c-26.423 0-47.833 21.429-47.833 47.833s21.41 47.833 47.833 47.833 47.833-21.429 47.833-47.833-21.411-47.833-47.833-47.833zM836.577 308.17499999999995c0-10.523-8.61-19.133-19.133-19.133l-612.265 0c-10.523 0-19.133 8.61-19.133 19.133l0 306.133c0 10.523 8.61 19.133 19.133 19.133l612.265 0c10.523 0 19.133-8.61 19.133-19.133l0-306.133z"  horiz-adv-x="1024" />

    
    <glyph glyph-name="sousuo1" unicode="&#58898;" d="M875.755-7.682999999999993l-175.716 175.716c73.084 69.503 118.646 167.678 118.646 276.497 0 210.705-170.81 381.518-381.518 381.518s-381.518-170.81-381.518-381.518 170.81-381.518 381.518-381.518c76.3 0 147.361 22.412 206.981 60.992l181.647-181.647c13.795-13.795 36.161-13.795 49.957 0s13.795 36.161 0 49.957zM437.167 133.66499999999996c-171.687 0-310.864 139.18-310.864 310.864s139.18 310.864 310.864 310.864 310.864-139.18 310.864-310.864-139.18-310.864-310.864-310.864z"  horiz-adv-x="1024" />

    
    <glyph glyph-name="jiantou02" unicode="&#58893;" d="M979.796242 258.286834l-942.567339 0c-12.218276 0-22.119787 9.901511-22.119787 22.119787 0 12.223393 9.901511 22.119787 22.119787 22.119787l889.191688 0-192.115506 192.075597c0 0-6.670933 15.861246 8.084119 26.784016 13.302981 9.848299 28.309766-0.635473 28.309766-0.635473l224.739531-224.697575c6.310729-6.342452 8.205892-15.839757 4.78191-24.112164C996.803591 263.70217 988.731752 258.286834 979.796242 258.286834L979.796242 258.286834zM979.796242 258.286834"  horiz-adv-x="1024" />

    
    <glyph glyph-name="all" unicode="&#59021;" d="M895.56792 830.733454 612.944854 830.733454c-35.401859 0-64.202729-29.073224-64.202729-64.808869l0-311.097317 0-11.588334 0-24.573248 24.573248 0 11.588334 0 310.664214 0c35.42848 0 64.250852 29.074248 64.250852 64.809893l0 282.449006C959.818772 801.66023 930.995377 830.733454 895.56792 830.733454zM910.672277 483.475579c0-8.637497-6.776073-15.663398-15.104356-15.663398L597.88862 467.812181 597.88862 765.924584c0 8.636473 6.754571 15.662374 15.056234 15.662374l282.622042 0c8.328283 0 15.104356-7.025901 15.104356-15.662374L910.671253 483.475579zM65.468252 765.924584l0-282.449006c0-35.736669 28.822372-64.809893 64.250852-64.809893l310.664214 0 11.588334 0 24.573248 0 0 24.573248 0 11.588334 0 311.097317c0 35.735646-28.80087 64.808869-64.202729 64.808869L129.719103 830.733454C94.291647 830.733454 65.468252 801.66023 65.468252 765.924584zM114.614747 765.924584c0 8.636473 6.776073 15.662374 15.104356 15.662374L412.34217 781.586958c8.301662 0 15.056234-7.025901 15.056234-15.662374l0-298.112403L129.719103 467.812181c-8.328283 0-15.104356 7.026925-15.104356 15.663398L114.614747 765.924584zM959.818772 1.224567l0 282.449006c0 35.736669-28.822372 64.809893-64.250852 64.809893L548.742125 348.483466l0-24.573248 0-11.588334 0-311.097317c0-35.735646 28.80087-64.808869 64.202729-64.808869l282.622042 0C930.995377-63.585326 959.818772-34.512103 959.818772 1.224567zM910.672277 1.224567c0-8.636473-6.776073-15.662374-15.104356-15.662374L612.944854-14.437807c-8.301662 0-15.056234 7.025901-15.056234 15.662374L597.88862 299.33697l297.678276 0c8.328283 0 15.104356-7.026925 15.104356-15.663398L910.671253 1.224567zM129.719103-63.585326 412.34217-63.585326c35.401859 0 64.202729 29.073224 64.202729 64.808869L476.544899 348.483466 129.719103 348.483466c-35.42848 0-64.250852-29.074248-64.250852-64.809893l0-282.449006C65.468252-34.512103 94.291647-63.585326 129.719103-63.585326zM114.614747 283.673573c0 8.637497 6.776073 15.663398 15.104356 15.663398l297.678276 0 0-298.112403c0-8.636473-6.754571-15.662374-15.056234-15.662374L129.719103-14.437807c-8.328283 0-15.104356 7.025901-15.104356 15.662374L114.614747 283.673573z"  horiz-adv-x="1025" />

    
    <glyph glyph-name="tianjia" unicode="&#59269;" d="M226.086 69.56600000000003l286.015 286.025 284.797-284.803c7.82-7.803 20.51-7.804 28.33 0 7.802 7.84 7.802 20.508 0 28.33l-284.806 284.795 286.005 286.013c7.859 7.842 7.859 20.569 0 28.409-7.821 7.84-20.549 7.84-28.388 0.001l-286.022-286.019-285.437 285.426c-7.82 7.821-20.491 7.821-28.309 0.001-7.823-7.822-7.823-20.509 0-28.313l285.428-285.434-286.023-286.019c-7.843-7.84-7.843-20.568-0.001-28.409 7.842-7.842 20.551-7.842 28.411-0.001z"  horiz-adv-x="1024" />

    
    <glyph glyph-name="tianjia1" unicode="&#59097;" d="M757.67808 398.6688h-231.0144V629.67808a14.66368 14.66368 0 1 1-29.33248 0v-231.00928H266.32192a14.6688 14.6688 0 1 1 0-29.33248h231.00928v-231.0144a14.6688 14.6688 0 0 1 29.33248 0v231.0144h231.0144a14.66368 14.66368 0 1 1 0 29.33248zM512.00512-110.93503999999996c-10.22464 0-20.58752 0.32256-30.81216 0.9472a7.68 7.68 0 1 0 0.94208 15.32928c20.01408-1.22368 40.33536-1.19808 60.23168 0.03584a7.68 7.68 0 0 0 0.95232-15.32928 506.0096 506.0096 0 0 0-31.31392-0.98304z m-91.03872 8.48896c-0.47104 0-0.95232 0.04608-1.4336 0.13312a494.3616 494.3616 0 0 0-60.2112 15.37536 7.68 7.68 0 0 0 4.73088 14.61248 479.59552 479.59552 0 0 1 58.33728-14.89408 7.67488 7.67488 0 0 0-1.42336-15.22688z m182.55872 0.09728a7.68512 7.68512 0 0 0-1.42848 15.22688 477.4144 477.4144 0 0 1 58.3168 14.95552 7.68512 7.68512 0 0 0 4.75136-14.61248 493.19424 493.19424 0 0 0-60.19584-15.4368 8.192 8.192 0 0 0-1.44384-0.13312z m-298.76224 37.5552a7.68 7.68 0 0 0-3.26656 0.73216 495.51872 495.51872 0 0 0-54.47168 29.96224 7.68512 7.68512 0 0 0 8.23296 12.96896 478.70464 478.70464 0 0 1 52.77696-29.0304 7.68 7.68 0 0 0-3.27168-14.63296z m414.8992 0.19456a7.66976 7.66976 0 0 0-3.2768 14.62272 481.55648 481.55648 0 0 1 52.70016 29.05088 7.68 7.68 0 0 0 8.23808-12.95872 494.28992 494.28992 0 0 0-54.38976-29.9776 7.6288 7.6288 0 0 0-3.27168-0.73728zM201.64096 0.6707199999999602c-1.72032 0-3.456 0.57344-4.8896 1.76128a498.8672 498.8672 0 0 0-45.31712 42.52672 7.68 7.68 0 1 0 11.19232 10.5216 482.73408 482.73408 0 0 1 43.91936-41.20576 7.68 7.68 0 0 0-4.90496-13.60384z m621.00992 0.24576a7.68512 7.68512 0 0 0-4.90496 13.5936 484.07552 484.07552 0 0 1 43.88864 41.2416 7.68 7.68 0 1 0 11.1872-10.5216 502.26176 502.26176 0 0 0-45.28128-42.55232 7.64416 7.64416 0 0 0-4.8896-1.76128z m-704.6656 88.69888c-2.37056 0-4.7104 1.09568-6.21568 3.15392a500.27008 500.27008 0 0 0-33.37216 52.38272 7.68512 7.68512 0 0 0 13.44512 7.42912 482.6368 482.6368 0 0 1 32.33792-50.7648 7.68 7.68 0 0 0-6.1952-12.20096z m788.25984 0.31232a7.68 7.68 0 0 0-6.20544 12.20096 482.26816 482.26816 0 0 1 32.32256 50.83136 7.68 7.68 0 1 0 13.45024-7.40864 496.96768 496.96768 0 0 0-33.35168-52.45952 7.66976 7.66976 0 0 0-6.21568-3.16416zM59.01312 196.46464000000003a7.68 7.68 0 0 0-7.1424 4.84352 492.28288 492.28288 0 0 0-19.2512 59.09504 7.68 7.68 0 1 0 14.8736 3.81952 477.31712 477.31712 0 0 1 18.65216-57.24672 7.66976 7.66976 0 0 0-7.13216-10.51136z m906.1632 0.48128a7.68512 7.68512 0 0 0-7.1424 10.50624 478.73024 478.73024 0 0 1 18.60096 57.29792 7.6544 7.6544 0 0 0 9.344 5.53472 7.68 7.68 0 0 0 5.53472-9.344 493.74208 493.74208 0 0 0-19.2-59.15136 7.68 7.68 0 0 0-7.13728-4.84352zM28.58496 314.72128a7.68 7.68 0 0 0-7.60832 6.72256 502.10816 502.10816 0 0 0-3.9168 61.99808 7.68 7.68 0 0 0 7.66976 7.69024h0.01024a7.68 7.68 0 0 0 7.68-7.66976 486.3488 486.3488 0 0 1 3.79904-60.09856 7.68 7.68 0 0 0-7.63392-8.64256z m966.89152 0.54272a7.68512 7.68512 0 0 0-7.63392 8.63232c2.47296 19.80928 3.73248 40.03328 3.73248 60.10368l-0.00512 1.09568a7.68 7.68 0 1 0 15.36 0l0.00512-0.99328c0-20.80768-1.29536-41.6768-3.85024-62.11072a7.68 7.68 0 0 0-7.60832-6.72768zM28.47232 436.82816a7.68 7.68 0 0 0-7.63392 8.62208 494.5664 494.5664 0 0 0 11.50976 61.06624 7.68 7.68 0 1 0 14.88384-3.79392 479.42656 479.42656 0 0 1-11.14624-59.16672 7.68 7.68 0 0 0-7.61344-6.72768z m966.84032 1.63328a7.68 7.68 0 0 0-7.60832 6.71232 478.976 478.976 0 0 1-11.34592 59.12576 7.68 7.68 0 1 0 14.86848 3.84 495.09376 495.09376 0 0 0 11.71456-61.02528 7.68 7.68 0 0 0-7.6288-8.6528zM58.61888 555.1872000000001a7.68 7.68 0 0 0-7.13728 10.50112 493.4656 493.4656 0 0 0 26.43968 56.27392 7.68 7.68 0 1 0 13.46048-7.3984 479.54944 479.54944 0 0 1-25.61536-54.51776 7.69024 7.69024 0 0 0-7.14752-4.85888z m906.16832 1.49504a7.68 7.68 0 0 0-7.13728 4.8384 479.7184 479.7184 0 0 1-25.75872 54.3744 7.68 7.68 0 0 0 13.44 7.43936 495.2064 495.2064 0 0 0 26.58816-56.1152 7.68 7.68 0 0 0-4.29056-9.97888 7.5264 7.5264 0 0 0-2.8416-0.55808zM117.41696 662.26176a7.68512 7.68512 0 0 0-6.21056 12.19072 498.82624 498.82624 0 0 0 39.5776 47.90784 7.68 7.68 0 0 0 11.20768-10.50624 484.12672 484.12672 0 0 1-38.35904-46.42816c-1.49504-2.06848-3.84-3.16416-6.21568-3.16416z m788.29056 1.20832c-2.36544 0-4.70016 1.09056-6.20544 3.1488a484.22912 484.22912 0 0 1-38.49728 46.30016 7.68 7.68 0 1 0 11.18208 10.53184 500.12672 500.12672 0 0 0 39.71584-47.77472 7.68 7.68 0 0 0-6.1952-12.20608zM200.9344 751.37536a7.66976 7.66976 0 0 0-4.91008 13.58848 499.06688 499.06688 0 0 0 50.18112 36.61824A7.68 7.68 0 0 0 254.464 788.6336a483.43552 483.43552 0 0 1-48.62976-35.48672c-1.4336-1.19296-3.1744-1.77152-4.89984-1.77152z m620.98944 0.94208c-1.72032 0-3.456 0.57344-4.88448 1.75616a481.73056 481.73056 0 0 1-48.75776 35.3536 7.68 7.68 0 1 0 8.2176 12.97408 497.28 497.28 0 0 0 50.31936-36.48512 7.68 7.68 0 0 0-4.89472-13.59872zM303.85152 816.9984a7.68 7.68 0 0 0-3.29216 14.62784 492.88704 492.88704 0 0 0 57.74336 22.97856 7.68 7.68 0 1 0 4.76672-14.59712 477.20448 477.20448 0 0 1-55.94112-22.26688 7.6288 7.6288 0 0 0-3.2768-0.7424z m414.87872 0.67584a7.6288 7.6288 0 0 0-3.25632 0.73216 479.14496 479.14496 0 0 1-56.04864 22.08768 7.69024 7.69024 0 0 0-4.95104 9.67168 7.66464 7.66464 0 0 0 9.67168 4.94592 493.93152 493.93152 0 0 0 57.85088-22.79936 7.68512 7.68512 0 0 0-3.26656-14.63808zM419.92192 854.8864a7.68 7.68 0 0 0-1.43872 15.22688 496.6912 496.6912 0 0 0 61.6448 7.81312 7.68 7.68 0 1 0 0.9728-15.32928 481.85344 481.85344 0 0 1-59.73504-7.57248 7.70048 7.70048 0 0 0-1.44384-0.13824z m182.58944 0.29696c-0.47104 0-0.95232 0.04608-1.42848 0.13312a481.40288 481.40288 0 0 1-59.7504 7.3728 7.68 7.68 0 0 0-7.20384 8.12544 7.72608 7.72608 0 0 0 8.12544 7.20384c20.67968-1.24416 41.43104-3.80928 61.6704-7.60832a7.68 7.68 0 0 0-1.41312-15.22688z"  horiz-adv-x="1024" />

    
    <glyph glyph-name="icon-test" unicode="&#58944;" d="M330.285952 326.045019c-31.337034 0-62.816389 2.709201-94.280385 9.717696a14.511527 14.511527 0 0 0-11.363079 14.171596V752.238309c0 4.879837 2.439919 9.419745 6.511911 12.114611a14.619035 14.619035 0 0 0 13.689347 1.262451c95.883789-40.643128 177.595981-16.101621 256.640952 7.603373 94.280385 28.301214 191.781912 57.595597 297.212408-39.225047a14.519718 14.519718 0 0 0 4.695538-10.69653V347.84968100000003c0-4.794855-2.369271-9.277425-6.313277-11.98765-3.971651-2.694866-8.979474-3.290767-13.463068-1.560401-96.33737 37.295023-191.597613 22.953461-292.446222 7.787672-52.730094-7.943302-106.607964-16.044283-160.884125-16.044283z m-76.590718 35.735646c76.718704-14.483882 152.827171-3.064489 233.162238 9.036811 93.756155 14.100949 190.547107 28.669813 287.481402-2.425584v348.438415c-91.316237 80.576703-171.708641 56.418129-264.499272 28.570496-74.931-22.498856-159.139424-47.835922-256.144368-14.299582v-369.320556zM239.168349-36.08274300000005c-8.029309 0-14.526885 6.497576-14.526885 14.526885V784.667829c0 8.029309 6.497576 14.526885 14.526885 14.526885s14.526885-6.497576 14.526885-14.526885v-806.223687c0-8.029309-6.497576-14.526885-14.526885-14.526885z"  horiz-adv-x="1024" />

    
    <glyph glyph-name="rili" unicode="&#58906;" d="M0 810.666667h85.333333v-938.666667H0V810.666667z m85.333333-853.333334h938.666667v-85.333333H85.333333v85.333333zM938.666667 810.666667h85.333333v-938.666667h-85.333333V810.666667zM0 640h1018.624v-85.333333H0V640z m341.333333 170.666667h341.333334v-170.666667H341.333333V810.666667zM170.666667 896h85.333333v-85.333333H170.666667V896z m0-426.666667h170.666666v-85.333333H170.666667V469.333333z m256 0h170.666666v-85.333333H426.666667V469.333333z m256 0h170.666666v-85.333333H682.666667V469.333333zM170.666667 298.66666699999996h170.666666v-85.333334H170.666667V298.66666699999996z m256 0h170.666666v-85.333334H426.666667V298.66666699999996z m256 0h170.666666v-85.333334H682.666667V298.66666699999996zM170.666667 128h170.666666v-85.333333H170.666667V128z m256 0h170.666666v-85.333333H426.666667V128z m256 0h170.666666v-85.333333H682.666667V128z m85.333333 768h85.333333v-85.333333H768V896zM0 725.333333h1024v-85.333333H0V725.333333z"  horiz-adv-x="1024" />

    
    <glyph glyph-name="tuichu" unicode="&#59098;" d="M508.767677-124.76767700000005c-268.024242 0-486.012121 217.987879-486.012121 486.012121 0 163.943434 81.971717 315.733333 219.280808 406.109091 13.317172 8.662626 31.030303 5.042424 39.692929-8.274747 8.662626-13.187879 5.042424-31.030303-8.274748-39.692929C152.436364 639.612121 80.161616 505.664646 80.161616 361.11515199999997c0-236.347475 192.258586-428.606061 428.606061-428.606061S937.373737 124.76767700000005 937.373737 361.11515199999997c0 144.549495-72.40404 278.49697-193.551515 358.141414-13.187879 8.662626-16.937374 26.505051-8.274747 39.692929 8.791919 13.187879 26.505051 16.808081 39.692929 8.274747C912.808081 676.977778 994.779798 525.058586 994.779798 361.11515199999997c0-267.894949-217.987879-485.882828-486.012121-485.882829zM508.767677 479.418182c-15.773737 0-28.70303 12.8-28.703031 28.70303V867.29697C480.064646 883.070707 492.864646 896 508.767677 896s28.70303-12.8 28.70303-28.70303V508.121212c0-15.773737-12.929293-28.70303-28.70303-28.70303z"  horiz-adv-x="1024" />

    
    <glyph glyph-name="sanjiaoxing-copy" unicode="&#58894;" d="M600.925 462.178l-90.289-156.354-90.266 156.354z"  horiz-adv-x="1024" />

    
    <glyph glyph-name="queren2" unicode="&#58904;" d="M509.952 884.736C233.472 884.736 9.216 660.48 9.216 384s224.256-501.76 500.736-501.76 500.736 224.256 500.736 500.736-224.256 501.76-500.736 501.76z m-46.08-662.528l-37.888-37.888-37.888 37.888-153.6 152.576 37.888 37.888 153.6-151.552L747.52 582.656l37.888-37.888-321.536-322.56z"  horiz-adv-x="1024" />

    
    <glyph glyph-name="querendingdandizhi" unicode="&#58903;" d="M530.346667 15.231999999999971a24.192 24.192 0 0 0-18.368-8.256c-7.104 0-13.781333 2.986667-18.346667 8.256C480.448 30.44266700000003 170.666667 390.101333 170.666667 565.952 170.666667 747.925333 323.776 896 511.978667 896 700.202667 896 853.333333 747.925333 853.333333 565.952c0-175.850667-309.824-535.509333-322.986666-550.72m-18.368 834.453333c-161.792 0-293.44-127.253333-293.44-283.733333 0-136.32 226.56-418.794667 293.44-499.221333 66.922667 80.426667 293.482667 362.901333 293.482666 499.221333 0 156.48-131.669333 283.733333-293.482666 283.733333m4.544-394.88c-78.101333 0-141.632 61.461333-141.632 136.96 0 75.477333 63.530667 136.938667 141.632 136.938667s141.632-61.461333 141.632-136.938667c0-75.498667-63.530667-136.96-141.632-136.96m0 227.605334c-51.690667 0-93.76-40.661333-93.76-90.645334 0-50.005333 42.069333-90.645333 93.76-90.645333 51.690667 0 93.76 40.64 93.76 90.645333 0 49.984-42.069333 90.645333-93.76 90.645334M353.770667 123.072c12.992 2.453333 25.578667-5.696 28.138666-18.261333 2.56-12.522667-5.909333-24.704-18.858666-27.2-94.869333-18.090667-144.512-50.432-144.512-73.066667 0-35.157333 114.304-86.229333 293.44-86.229333 179.136 0 293.482667 51.072 293.482666 86.229333 0 22.272-48.682667 54.336-141.738666 72.512-12.970667 2.56-21.333333 14.784-18.688 27.306667 2.581333 12.522667 15.253333 20.693333 28.181333 18.090666C787.690667 100.07466699999998 853.333333 57.10933299999999 853.333333 4.543999999999983 853.333333-82.47466699999995 681.6-128 511.978667-128 342.357333-128 170.666667-82.47466699999995 170.666667 4.543999999999983c0 53.098667 66.752 96.298667 183.104 118.528m0 0z"  horiz-adv-x="1024" />

    
    <glyph glyph-name="sousuo2" unicode="&#59001;" d="M474.785 46.5c-50.731 0-99.957 9.94-146.309 29.546-44.76 18.933-84.954 46.03-119.465 80.541-34.511 34.512-61.609 74.705-80.541 119.465-19.605 46.353-29.546 95.578-29.546 146.31 0 50.731 9.941 99.957 29.546 146.309 18.932 44.76 46.03 84.954 80.541 119.465s74.705 61.609 119.465 80.541c46.353 19.605 95.578 29.546 146.309 29.546 50.731 0 99.957-9.941 146.31-29.546 44.76-18.932 84.953-46.03 119.465-80.541 34.511-34.511 61.608-74.705 80.541-119.465 19.605-46.353 29.546-95.578 29.546-146.309 0-50.731-9.94-99.957-29.546-146.31-18.933-44.76-46.03-84.953-80.541-119.465-34.512-34.511-74.705-61.608-119.465-80.541-46.353-19.606-95.578-29.546-146.31-29.546z m0 706.723c-182.438 0-330.862-148.424-330.862-330.862 0-182.438 148.424-330.861 330.862-330.861 182.438 0 330.861 148.424 330.861 330.861 0 182.438-148.423 330.862-330.861 330.862zM867.261-7.260999999999967c-8.957 0-17.915 3.417-24.749 10.251L709.879 135.62300000000005c-13.668 13.669-13.668 35.829 0 49.498 13.67 13.668 35.83 13.668 49.498 0L892.01 52.488000000000056c13.668-13.669 13.668-35.829 0-49.498-6.835-6.834-15.792-10.251-24.749-10.251z"  horiz-adv-x="1024" />

    
    <glyph glyph-name="gouwu" unicode="&#59233;" d="M900.48 512.1279999999999c-2.496 35.2-33.216 63.872-68.608 63.872H764.48C744.128 757.6320000000001 638.848 896 512 896S279.872 757.6320000000001 259.52 576h-67.328c-35.008 0-66.176-28.608-68.672-63.872L74.112-64.06399999999996C71.616-99.32799999999997 102.72-128 143.552-128h736.96c40.32 0 71.936 28.608 69.44 63.872L900.48 512.1279999999999zM512 832c92.864 0 170.368-109.952 188.16-256H323.84C341.632 722.048 419.136 832 512 832zM320 384c-35.328 0-64 28.672-64 64s28.672 64 64 64 64-28.672 64-64-28.672-64-64-64z m384 0c-35.328 0-64 28.672-64 64s28.672 64 64 64 64-28.672 64-64-28.672-64-64-64z"  horiz-adv-x="1024" />

    
    <glyph glyph-name="bianji-blue" unicode="&#58880;" d="M1024 595.251109l-602.406389-602.406389-300.748891 300.748891 602.406389 602.406389zM0 172.74889099999996l300.748891-300.748891-300.748891 0 0 300.748891z"  horiz-adv-x="1024" />

    
    <glyph glyph-name="travel" unicode="&#58895;" d="M606.031095 689.977763c278.685163-114.314559 278.685163-329.515852 278.685163-329.515852-139.335419 168.111812-371.58397 141.220349-371.58397 141.220348-13.273305-262.272355 278.69642-564.906977 278.69642-564.906977H606.612333c-24.542976 120.532167-86.473467 217.135342-166.174694 259.343653-35.653011 160.1597-20.205181 305.563324-20.205181 305.563324-179.997514-70.617337-232.249575-235.372705-232.249574-235.372705-40.646746 247.14789 185.800683 329.534272 185.800683 329.534272-150.95506 35.30611-232.249575-141.238768-232.249575-141.238768-29.03222 270.688026 232.249575 235.372705 232.249575 235.372705l46.448891 141.245931 92.89983-94.15645c212.331943 147.936307 325.135078-47.090505 325.135079-47.090504-99.529831 47.091528-232.236272 0.001023-232.236272 0.001023zM350.563726 172.15208099999995c94.536097 0 173.483146-99.578949 199.308325-235.376799H151.244144c25.825179 135.797849 104.772228 235.376799 199.319582 235.376799z"  horiz-adv-x="1024" />

    
    <glyph glyph-name="home" unicode="&#58914;" d="M837.8 506.2V791.3H674.9v-122.2L512 832 64 384h81.5v-448h244.4V302.5h244.4V-64h244.4V384H960L837.8 506.2z"  horiz-adv-x="1024" />

    
    <glyph glyph-name="close" unicode="&#59150;" d="M960 776L903.872 832 511.04 440 120.128 830.144 64 774.144 454.976 384 64-6.1440000000000055l56.128-56 390.912 390.144L903.872-64l56.128 56L567.168 384 960 776"  horiz-adv-x="1024" />

    
    <glyph glyph-name="fabu" unicode="&#58910;" d="M946.672 785.515c0 0.043-0.003 0.085-0.003 0.13a29.858 29.858 0 0 1-0.105 2.472c-0.018 0.236-0.044 0.47-0.067 0.705a29.857 29.857 0 0 1-0.286 2.057c-0.033 0.191-0.058 0.382-0.095 0.572a30.726 30.726 0 0 1-0.579 2.437c-0.07 0.248-0.153 0.492-0.23 0.737a29.942 29.942 0 0 1-0.582 1.706c-0.112 0.295-0.222 0.59-0.342 0.884a30.143 30.143 0 0 1-0.945 2.079c-0.135 0.268-0.287 0.527-0.43 0.793a30.678 30.678 0 0 1-1.442 2.396 29.652 29.652 0 0 1-1.185 1.645c-0.129 0.167-0.248 0.336-0.38 0.5a29.565 29.565 0 0 1-2.198 2.42 29.452 29.452 0 0 1-1.761 1.628c-0.07 0.061-0.132 0.128-0.204 0.187-0.02 0.019-0.043 0.033-0.064 0.05a29.815 29.815 0 0 1-1.777 1.37c-0.123 0.087-0.252 0.163-0.376 0.248-0.221 0.152-0.445 0.294-0.668 0.442-0.554 0.36-1.117 0.699-1.69 1.02-0.235 0.133-0.467 0.273-0.705 0.398-0.723 0.38-1.46 0.728-2.206 1.047-0.29 0.125-0.587 0.234-0.883 0.348a29.576 29.576 0 0 1-1.584 0.568c-0.316 0.103-0.63 0.208-0.948 0.3a30.31 30.31 0 0 1-2.323 0.584c-0.22 0.045-0.44 0.073-0.66 0.113a29.561 29.561 0 0 1-2.772 0.377 30.173 30.173 0 0 1-2.173 0.116c-0.126 0.002-0.252 0.013-0.379 0.013a30.616 30.616 0 0 1-2.565-0.108c-0.219-0.018-0.436-0.045-0.654-0.067-0.685-0.07-1.368-0.167-2.05-0.284-0.205-0.036-0.41-0.066-0.615-0.105-0.832-0.163-1.66-0.356-2.48-0.59-0.193-0.055-0.382-0.124-0.574-0.182a30.47 30.47 0 0 1-2.737-0.983c-0.555-0.231-1.102-0.126-1.646-0.392-0.245-0.12-0.496 0.005-0.74 0.005L93.52 390.091c-10.017-5.235-16.266-15.812-16.187-27.114 0.08-11.3 6.474-21.699 16.563-26.791l217.27-109.707c14.863-7.507 32.998-1.56 40.5 13.308 7.502 14.863 1.535 32.986-13.33 40.487L173.472 363.48l623.153 325.577-384.13-460.475a30.147 30.147 0 0 1-6.998-19.314v-230.244c0-16.65 13.497-30.15 30.148-30.15 16.652 0 30.15 13.498 30.15 30.15v219.32l405.212 485.74-92.305-623.733-217.41 107.905c-14.914 7.4-33.007 1.31-40.409-13.604-7.403-14.915-1.313-33.007 13.602-40.41l254.567-126.346a30.146 30.146 0 0 1 27.368 0.286 30.15 30.15 0 0 1 15.86 22.305l114.068 770.809c0.04 0.273 0.06 0.547 0.092 0.82 0.035 0.288 0.07 0.574 0.096 0.862 0.077 0.849 0.13 1.695 0.135 2.537z"  horiz-adv-x="1024" />

    
    <glyph glyph-name="luxian" unicode="&#58881;" d="M502.656 286.65599999999995L503.04 286.4l0.32-0.384c4.736-5.312 11.584-8.32 18.688-8.32 7.168 0 14.016 3.008 18.752 8.32l0.32 0.384 0.384 0.32c46.528 44.032 154.816 158.336 154.816 267.968 0 95.936-78.144 173.952-174.272 173.952-96 0-174.272-78.016-174.272-173.952C347.84 445.056 456.128 330.75199999999995 502.656 286.65599999999995zM398.72 553.9200000000001c0 67.904 55.36 123.2 123.328 123.2 68.032 0 123.392-55.296 123.392-123.2 0-61.76-43.968-132.864-81.024-181.824-8.832-14.912-24.96-24.128-42.368-24.128-17.344 0-33.472 9.28-42.304 24.128C442.688 421.056 398.72 492.16 398.72 553.9200000000001zM855.936 542.4l-1.408-0.064c-3.968-0.192-7.808-1.344-11.264-3.328l-55.104-31.808c-5.824-3.392-9.984-8.768-11.712-15.232-1.728-6.464-0.832-13.248 2.496-19.008 4.48-7.744 12.8-12.48 21.76-12.48 4.288 0 8.576 1.088 12.352 3.2l17.984 10.24 0-312.192-191.104-97.664-229.568 120.32L409.6 185.08799999999997c-4.352 3.2-9.664 4.992-15.296 4.992L393.6 190.08000000000004c-5.568 0-11.008-1.856-15.36-5.248l-0.832-0.576-164.16-88.448L213.248 416l42.88 24.768c5.76 3.392 9.92 8.768 11.648 15.232C269.504 462.4 268.608 469.12 265.28 474.88c-4.48 7.68-12.8 12.48-21.76 12.48-4.352 0-8.704-1.152-12.48-3.328L175.808 452.16C171.072 449.472 167.424 445.376 165.184 440.128c-1.408-3.2-2.176-6.656-2.176-10.176l0-375.552c0-3.072 0.512-6.144 1.728-9.088 0.384-1.088 0.832-2.112 1.344-3.008 4.352-8.32 12.864-13.504 22.272-13.504 4.032 0 7.936 0.96 11.392 2.752l194.56 104.832 234.56-122.944c3.648-1.856 7.488-2.816 11.584-2.816 5.504 0 10.944 1.856 15.36 5.248l0.896 0.64 210.88 107.776c6.016 3.072 10.496 8.448 12.48 15.232 0.768 2.496 1.152 4.992 1.152 7.552L881.216 517.376C881.152 531.136 869.888 542.4 855.936 542.4z"  horiz-adv-x="1024" />

    
    <glyph glyph-name="jian" unicode="&#58945;" d="M170.666667 440.888889h682.666666v-113.777778H170.666667z"  horiz-adv-x="1024" />

    
    <glyph glyph-name="wenjian" unicode="&#58912;" d="M522.24 896v-343.04h343.04L522.24 896zM481.28 512V896H138.24v-1024h747.52V512H481.28z"  horiz-adv-x="1024" />

    
    <glyph glyph-name="buhang" unicode="&#59079;" d="M832.160816 406.548885c-64.952753 72.112899-130.416946 143.71436-194.346821 216.850137l-8.183024 7.160146c-27.106267 23.014755-60.349802 37.335047-95.639094 41.937999-19.434682 4.091512-39.892242 1.534317-57.792607-8.183024-16.366048-10.22878-32.732096-21.480438-47.563827-33.754975L379.025859 593.224121c-63.418436-46.540949-126.836873-92.05902-189.74387-140.645725-22.503316-16.877487-27.106267-49.098144-10.22878-71.601461 15.854609-23.014755 46.02951-30.174901 70.578583-17.388926 8.694463 4.602951 16.366048 10.22878 24.037633 16.366048l125.813994 92.059021c-22.503316-112.516581-46.02951-222.987405-68.021387-334.481108-3.068634-10.22878-8.183024-19.434682-15.854609-27.106267-42.960876-48.586705-86.94463-95.639093-129.394068-144.737238-10.22878-10.22878-16.366048-24.037633-16.366048-38.357925s5.625829-28.129145 16.366048-38.357925c11.251658-11.251658 27.106267-16.877487 42.960877-16.366048 15.854609 1.022878 30.68634 8.694463 40.91512 20.968999 51.1439 55.746851 101.264923 111.493703 151.385945 168.263432 7.160146 9.717341 12.274536 20.968999 14.320292 32.732096 9.205902 43.983754 16.877487 87.967508 25.57195 134.508457 82.853118-81.83024 141.157165-184.62948 168.774871-297.657499 0-3.580073 2.045756-7.671585 3.068634-11.251658 12.785975-37.846486 40.403681-55.235412 73.135777-45.518071 32.732096 9.717341 42.449437 39.892242 30.68634 79.784484-25.060511 112.005142-77.738728 216.338698-153.431701 302.77189-2.557195 2.557195-5.11439 6.137268-6.648707 9.717341-2.045756 5.11439-5.625829 11.251658-4.091512 15.854609 16.366048 61.37268 34.266413 122.745361 52.678218 189.74387 45.006632-49.609583 85.921752-95.639093 127.348311-141.157165 28.129145-30.68634 59.326924-34.266413 84.898875-10.740219 25.060511 24.549072 21.991877 55.235412-5.625829 85.921752z m-226.567479 271.574111c29.152023-0.511439 57.281168 10.740219 78.250168 31.709218 20.45756 20.45756 32.220657 48.586705 32.220657 77.738728C714.529845 847.920745 664.920262 896.50745 604.05902 895.996011c-60.861241-0.511439-109.447947-50.632461-108.425068-111.493703 1.534317-59.326924 50.121022-106.890752 109.959385-106.379312z"  horiz-adv-x="1024" />

    
    <glyph glyph-name="fanhui" unicode="&#58888;" d="M347.648-93.69600000000003c-4.096 0-7.68 1.536-10.752 4.608-6.144 6.144-6.144 15.872 0 21.504l450.048 450.048-450.048 450.048c-6.144 6.144-6.144 15.872 0 21.504C343.04 860.16 352.768 860.16 358.912 854.016l460.8-460.8c6.144-6.144 6.144-15.872 0-21.504l-460.8-460.8c-3.072-3.072-7.168-4.608-11.264-4.608z"  horiz-adv-x="1024" />

    
    <glyph glyph-name="lunchuang" unicode="&#58909;" d="M898.486-8.168999999999983l-66.854 58.754c-17.579 16.844-40.567 26.078-64.915 26.078-0.258 0-0.513-0.004-0.772-0.004-24.938-0.199-48.344-10.061-65.909-27.767l-38.655-38.975c-5.727-5.771-13.36-8.971-21.489-9.001a5.68 5.68 0 0 0-0.128-0.001c-8.084 0-15.693 3.134-21.436 8.83l-40.178 39.857c-17.653 17.511-41.072 27.183-65.938 27.233h-0.191c-24.795 0-48.178-9.574-65.855-26.972l-41.56-40.899c-11.772-11.588-30.931-11.588-42.707 0l-41.558 40.899c-17.677 17.398-41.058 26.972-65.854 26.972h-0.192c-24.576-0.049-47.729-9.494-65.31-26.616l-65.357-58.599c-13.046-11.695-14.139-31.754-2.443-44.799 11.698-13.046 31.753-14.14 44.799-2.442l65.896 59.077c0.395 0.356 0.784 0.72 1.165 1.098 11.774 11.682 30.972 11.718 42.793 0.086l41.559-40.901c17.674-17.393 41.061-26.972 65.859-26.972 24.795 0 48.184 9.579 65.857 26.972l41.563 40.901c11.821 11.634 31.016 11.595 42.793-0.085l40.179-39.858c17.714-17.572 41.179-27.234 66.113-27.232h0.389c25.08 0.102 48.619 9.962 66.282 27.769l38.656 38.972c11.729 11.827 30.966 11.979 42.881 0.346 0.395-0.39 0.804-0.765 1.219-1.131l67.419-59.25a31.584 31.584 0 0 1 20.931-7.894c8.808 0 17.57 3.646 23.841 10.782 11.565 13.16 10.272 33.208-2.89 44.774v-0.002h-0.003zM909.908 448.576l-112.187 48.615V639.338a31.726 31.726 0 0 1-20.246 29.576l-199.677 77.502v20.792c0 35.638-28.889 64.527-64.522 64.527-35.64 0-64.528-28.892-64.528-64.527v-20.47L242.834 666.87a31.726 31.726 0 0 1-20.253-29.577v-141.875l-108.095-46.843c-16.691-7.232-22.711-27.845-12.543-42.926l167.183-268.361c3.511-5.205 8.914-8.89 15.084-10.08 29.737-5.741 57.157-20.075 79.2-41.769l3.057-3.009c9.314-9.168 24.26-9.169 33.572 0l3.059 3.009c29.23 28.768 67.913 44.61 108.924 44.61h0.315c41.125-0.082 79.854-16.078 109.059-45.044l1.207-1.198c9.382-9.31 24.534-9.246 33.842 0.136 22.933 23.118 51.887 38.146 83.357 43.613 6.374 1.107 12.058 4.671 15.674 10.033l166.979 268.057c10.17 15.081 4.145 35.694-12.543 42.927l-0.004 0.003z m-375 162.501a57.12 57.12 0 0 1-45.419 0l-203.457-88.164v92.655l226.846 87.987 221.395-85.933v-92.937l-199.365 86.392z"  horiz-adv-x="1024" />

    
    <glyph glyph-name="xuxian" unicode="&#58923;" d="M504 847h16v-119h-16zM504 645h16v-119h-16zM504 444h16v-120h-16zM504 242h16v-119h-16zM504 40h16v-119h-16z"  horiz-adv-x="1024" />

    
    <glyph glyph-name="tianjia2" unicode="&#58920;" d="M1024 327.11111100000005H568.888889v-455.111111h-113.777778V327.11111100000005H0v113.777778h455.111111V896h113.777778v-455.111111h455.111111v-113.777778z"  horiz-adv-x="1024" />

    
    <glyph glyph-name="touxiang" unicode="&#58901;" d="M512 320c106 0 192 93.1 192 208s-86 208-192 208-192-93.1-192-208 86-208 192-208zM843.5 164.89999999999998c-14.2 26.2-35.9 48.6-64.4 66.6C719.9 269 630 288 512 288c-118 0-207.9-19-267.2-56.5-28.5-18-50.1-40.4-64.4-66.6-13.6-25-20.5-53.6-20.5-84.9v-16h704v16c0.1 31.3-6.8 59.9-20.4 84.9z"  horiz-adv-x="1024" />

    
    <glyph glyph-name="cha" unicode="&#59024;" d="M512 896a512 512 0 0 1-512-512 512 512 0 0 1 512-512 512 512 0 0 1 512 512 512 512 0 0 1-512 512z m241.005714-703.268571a32.182857 32.182857 0 0 0 0.512-45.348572 32.182857 32.182857 0 0 0-45.348571-0.512L512 339.236571 315.830857 147.01714300000003a31.963429 31.963429 0 1 0-44.763428 45.787428L466.285714 384l-195.291428 191.268571a32.182857 32.182857 0 0 0-0.585143 45.348572 32.182857 32.182857 0 0 0 45.348571 0.512L512 428.763429 708.169143 620.982857a31.963429 31.963429 0 1 0 44.763428-45.787428L557.714286 384l195.291428-191.268571z"  horiz-adv-x="1024" />

    
    <glyph glyph-name="bianji1" unicode="&#58950;" d="M668.097561 758.634146l243.512195-243.512195-508.878049-508.878049-243.512195 243.512196L668.097561 758.634146m0 106.146342c-15.609756 0-31.219512-6.243902-43.707317-18.731708L71.804878 293.46341500000005c-24.97561-24.97561-24.97561-62.439024 0-87.414635l287.219512-287.219512c12.487805-12.487805 28.097561-18.731707 43.707317-18.731707 15.609756 0 31.219512 6.243902 43.707317 18.731707L999.02439 471.414634c24.97561 24.97561 24.97561 62.439024 0 87.414634l-287.219512 287.219512c-12.487805 12.487805-28.097561 18.731707-43.707317 18.731708zM131.121951 146.73170700000003l168.585366-168.585366-171.707317-6.243902 3.121951 174.829268m-28.097561 162.341464c-28.097561-6.243902-56.195122-34.341463-62.439024-62.439025L31.219512-81.17073200000004c-6.243902-24.97561 6.243902-40.585366 28.097561-40.585366h9.365854l327.804878 9.365854c28.097561 6.243902 56.195122 34.341463 62.439024 62.439024L103.02439 309.073171zM811.707317 437.073171l-243.512195 243.512195c-18.731707 18.731707-46.829268 18.731707-65.560976 0-18.731707-18.731707-18.731707-46.829268 0-65.560976l243.512195-243.512195c18.731707-18.731707 46.829268-18.731707 65.560976 0 18.731707 18.731707 18.731707 46.829268 0 65.560976zM977.170732-34.341462999999976h-343.414634c-24.97561 0-46.829268-21.853659-46.829269-46.829269s21.853659-46.829268 46.829269-46.829268h343.414634c24.97561 0 46.829268 21.853659 46.829268 46.829268 0 28.097561-18.731707 46.829268-46.829268 46.829269z"  horiz-adv-x="1045" />

    
    <glyph glyph-name="shanchu" unicode="&#59077;" d="M724.224 713.472v24.448c0 51.84-42.24 94.08-94.336 94.08H394.112c-52.096 0-94.336-42.368-94.336-94.08v-24.448H87.68v-47.104h71.424v-0.128l50.688-654.336c3.328-42.624 39.424-76.032 82.304-76.032h439.936c42.88 0 78.976 33.408 82.304 76.032l50.688 654.336v0.128h71.424v47.104H724.224z m-377.216 24.448c0 25.856 21.248 47.104 47.104 47.104h235.776c25.984 0 47.104-21.12 47.104-47.104v-24.448H347.008v24.448z m420.352-722.432c-1.408-18.176-17.024-32.512-35.328-32.512H292.096c-18.432 0-33.92 14.336-35.328 32.512L206.464 665.6h611.072l-50.176-650.112z m-415.488 59.136l47.104 3.584-17.024 233.984-3.712 48.768-15.36 211.584-16-1.152-31.104-2.304 17.152-235.136 18.944-259.328z m339.072 258.944L708.224 569.6l-31.104 2.304-16 1.152-15.616-212.352-3.584-48.768-17.024-233.216 47.104-3.584 18.944 258.432zM535.552 570.496h-47.104v-494.208h47.104V570.496z"  horiz-adv-x="1024" />

    
    <glyph glyph-name="didian1" unicode="&#58915;" d="M513.1 833.7c-185.8 0-336.7-150.8-336.7-336 0-61 16.7-119.5 46.6-170.2 33.3-56.4 273.5-381.7 273.5-381.7 3.2-6.2 9.7-10.1 16.6-10.1 6.9 0 13.3 3.9 16.6 10.1 0 0 240.2 325.3 273.4 381.7 29.9 50.7 46.6 109.3 46.6 170.2 0.1 185.2-151.1 336-336.6 336m0-448.3c-61.9 0-112.2 50.5-112.2 112.2 0 61.9 50.4 112.2 112.2 112.2 61.9 0 112.2-50.3 112.2-112.2 0-61.7-50.3-112.2-112.2-112.2m0 0z"  horiz-adv-x="1024" />

    
    <glyph glyph-name="zhanghaoshezhi" unicode="&#58957;" d="M547.84-98.0992h-71.4752c-29.0816 0-52.8384 23.7568-52.8384 52.8384v42.8032c0 12.0832-10.6496 26.624-22.1184 30.1056-0.4096 0.2048-1.024 0.4096-1.4336 0.4096l-60.0064 24.576c-0.6144 0.2048-1.2288 0.4096-1.6384 0.8192-3.6864 2.048-8.3968 3.072-13.5168 3.072-9.0112 0-17.8176-3.2768-22.9376-8.3968l-30.5152-30.5152c-10.0352-9.8304-23.1424-15.36-37.2736-15.36-14.1312 0-27.4432 5.5296-37.2736 15.36l-50.5856 50.5856c-20.48 20.6848-20.48 54.0672 0 74.5472l30.5152 30.5152c8.6016 8.6016 11.264 26.0096 5.5296 36.864-0.2048 0.4096-0.4096 1.024-0.6144 1.4336L156.8768 271.36c-0.2048 0.4096-0.4096 1.024-0.6144 1.4336-3.6864 11.6736-18.0224 22.1184-30.1056 22.1184H82.7392c-29.0816 0-52.8384 23.7568-52.8384 52.8384v71.4752c0 29.0816 23.7568 52.8384 52.8384 52.8384h43.008c12.0832 0 26.624 10.6496 30.1056 22.1184 0.2048 0.4096 0.4096 1.024 0.6144 1.4336l24.576 60.0064c0.2048 0.6144 0.4096 1.024 0.8192 1.6384 5.7344 10.6496 3.072 28.2624-5.5296 36.6592l-30.3104 30.5152c-9.8304 9.8304-15.36 23.1424-15.36 37.2736 0 14.1312 5.5296 27.4432 15.36 37.2736L196.608 749.568c10.0352 10.0352 23.1424 15.36 37.2736 15.36 14.1312 0 27.4432-5.5296 37.2736-15.36l30.5152-30.5152c5.3248-5.3248 14.1312-8.6016 23.1424-8.6016 5.12 0 9.8304 1.024 13.7216 3.072 0.6144 0.2048 1.024 0.6144 1.6384 0.8192l59.8016 24.576c0.4096 0.2048 1.024 0.4096 1.4336 0.6144 11.6736 3.6864 22.1184 18.0224 22.1184 30.1056v43.008c0 29.0816 23.7568 52.8384 52.8384 52.8384h71.4752c29.0816 0 52.8384-23.7568 52.8384-52.8384v-43.008c0-12.0832 10.6496-26.624 22.3232-30.1056 0.4096-0.2048 1.024-0.4096 1.4336-0.6144l59.8016-24.576c0.6144-0.2048 1.024-0.4096 1.6384-0.8192 3.6864-2.048 8.3968-3.072 13.7216-3.072 9.0112 0 17.8176 3.2768 23.1424 8.6016l30.5152 30.5152c10.0352 10.0352 23.1424 15.36 37.2736 15.36 14.1312 0 27.4432-5.5296 37.2736-15.36l50.5856-50.5856c10.0352-10.0352 15.36-23.1424 15.36-37.2736 0-14.1312-5.5296-27.4432-15.36-37.2736L847.872 593.9200000000001c-8.6016-8.6016-11.0592-26.0096-5.3248-36.6592 0.2048-0.6144 0.6144-1.024 0.8192-1.6384l24.576-60.0064c0.2048-0.4096 0.4096-0.8192 0.4096-1.4336 3.6864-11.6736 18.0224-22.3232 30.1056-22.3232h43.008c14.1312 0 27.2384-5.5296 37.2736-15.5648 10.0352-10.0352 15.5648-23.1424 15.5648-37.2736v-71.68c0-29.0816-23.552-52.8384-52.6336-52.8384h-43.008c-12.0832 0-26.624-10.6496-30.1056-22.3232-0.2048-0.4096-0.4096-1.024-0.4096-1.4336l-24.576-59.8016c-0.2048-0.6144-0.4096-1.024-0.8192-1.6384-5.7344-10.6496-3.072-28.2624 5.3248-36.864l30.5152-30.5152c10.0352-10.0352 15.36-23.1424 15.36-37.2736 0-14.1312-5.5296-27.4432-15.36-37.2736l-50.5856-50.5856c-10.0352-10.0352-23.1424-15.36-37.2736-15.36-14.1312 0-27.4432 5.5296-37.2736 15.36l-30.3104 30.5152c-5.12 5.12-14.1312 8.3968-22.9376 8.3968-5.12 0-9.8304-1.024-13.7216-3.072-0.6144-0.2048-1.024-0.6144-1.6384-0.8192l-60.0064-24.576c-0.4096-0.2048-1.024-0.4096-1.4336-0.4096-11.6736-3.6864-22.3232-18.0224-22.3232-30.1056V-46.08000000000004c-0.6144-28.2624-24.1664-52.0192-53.248-52.0192z m-135.7824 158.1056c25.3952-8.3968 45.2608-35.6352 45.2608-62.464v-42.8032c0-10.4448 8.3968-18.8416 18.8416-18.8416h71.4752c10.24 0 18.8416 8.6016 18.8416 18.8416v42.8032c0 26.8288 19.8656 54.0672 45.2608 62.464l58.5728 23.9616c8.6016 4.5056 18.6368 6.7584 29.0816 6.7584 18.0224 0 35.6352-6.9632 47.104-18.432l30.3104-30.5152c3.4816-3.4816 8.192-5.3248 13.312-5.3248s9.8304 1.8432 13.312 5.5296l50.5856 50.5856c3.4816 3.4816 5.5296 8.192 5.5296 13.312s-1.8432 9.8304-5.5296 13.312l-30.5152 30.5152c-19.0464 19.0464-23.9616 52.224-11.6736 76.1856l24.1664 58.5728c8.3968 25.3952 35.6352 45.2608 62.464 45.2608h43.008c10.24 0 18.6368 8.3968 18.6368 18.8416v71.68c0 4.9152-2.048 9.6256-5.5296 13.312-3.4816 3.4816-8.192 5.5296-13.1072 5.5296h-43.008c-26.8288 0-54.0672 19.8656-62.464 45.2608l-24.1664 58.5728c-12.288 23.7568-7.168 56.9344 11.6736 75.9808l30.5152 30.5152c3.4816 3.4816 5.5296 8.192 5.5296 13.312s-1.8432 9.8304-5.5296 13.312L803.4304 726.016c-3.4816 3.4816-8.192 5.5296-13.312 5.5296s-9.8304-1.8432-13.312-5.5296l-30.5152-30.5152c-11.4688-11.4688-29.0816-18.432-47.104-18.432-10.4448 0-20.48 2.2528-28.8768 6.7584l-58.368 24.1664c-25.3952 8.3968-45.2608 35.6352-45.2608 62.464v43.008c0 10.24-8.6016 18.8416-18.8416 18.8416h-71.4752c-10.24 0-18.8416-8.6016-18.8416-18.8416v-43.008c0-26.8288-19.8656-54.0672-45.2608-62.464l-58.5728-24.1664c-8.6016-4.3008-18.432-6.7584-28.8768-6.7584-18.0224 0-35.6352 6.9632-47.104 18.432l-30.72 30.5152c-3.4816 3.4816-8.192 5.5296-13.312 5.5296s-9.8304-1.8432-13.312-5.5296L169.984 675.4304c-3.4816-3.4816-5.5296-8.192-5.5296-13.312s1.8432-9.8304 5.5296-13.312l30.3104-30.5152c19.0464-18.8416 24.1664-52.224 11.8784-75.9808l-24.1664-58.5728c-8.3968-25.3952-35.6352-45.2608-62.464-45.2608h-43.008c-10.4448 0-18.8416-8.3968-18.8416-18.8416v-71.4752c0-10.4448 8.3968-18.8416 18.8416-18.8416h43.008c26.8288 0 54.0672-19.8656 62.2592-45.2608l24.1664-58.5728c12.288-23.9616 7.168-57.1392-11.8784-76.1856l-30.5152-30.3104c-7.168-7.3728-7.168-19.2512 0-26.624l50.5856-50.5856c3.4816-3.4816 8.192-5.5296 13.312-5.5296s9.8304 1.8432 13.312 5.5296l30.5152 30.5152c11.4688 11.4688 29.0816 18.432 46.8992 18.432 10.4448 0 20.48-2.2528 28.8768-6.7584l58.9824-23.9616z m100.1472 128.2048c-107.9296 0-195.7888 87.8592-195.7888 195.7888 0 107.9296 87.8592 195.7888 195.7888 195.7888 107.9296 0 195.7888-87.8592 195.7888-195.7888 0-107.9296-87.8592-195.7888-195.7888-195.7888z m0 357.5808c-89.2928 0-161.792-72.4992-161.792-161.792s72.704-161.792 161.792-161.792c89.2928 0 161.792 72.4992 161.792 161.792s-72.704 161.792-161.792 161.792z"  horiz-adv-x="1024" />

    
    <glyph glyph-name="fanhuidingbu" unicode="&#58917;" d="M951.1 342.29999999999995L561.7 787.6h365.9c12.4 0 22.4 10 22.4 22.4 0 12.4-10 22.4-22.4 22.4H97.9c-12.4 0-22.4-10-22.4-22.4 0-12.4 10-22.4 22.4-22.4h364.3L73.5 342.29999999999995c-8.2-9.3-7.2-23.5 2.1-31.7s23.5-7.2 31.7 2.1l382.2 437.8v-792.3c0-12.4 10-22.4 22.4-22.4 12.4 0 22.4 10 22.4 22.4V750.6l383-437.9c8.2-9.3 22.3-10.3 31.7-2.1 9.4 8.2 10.3 22.4 2.1 31.7z"  horiz-adv-x="1024" />

    
    <glyph glyph-name="zhankai" unicode="&#58896;" d="M726.0159999999998 571.5968l-34.7136 34.7136-178.89279999999997-178.89280000000005L333.6191999999999 606.2079999999999l-34.7136-34.7136 213.6064-213.50399999999988L726.0159999999998 571.5968m-213.5039999999998-340.4800000000001l-178.89280000000005 178.89279999999997-34.7136-34.7136L512.5120000000001 161.79199999999992 726.0160000000001 375.29600000000005l-34.7136 34.7136-178.79039999999998-178.89280000000005m0 0z"  horiz-adv-x="1024" />

    
    <glyph glyph-name="biaoqianlan_icon_yuanquan_moren" unicode="&#58907;" d="M512 640C371.2 640 256 524.8 256 384s115.2-256 256-256 256 115.2 256 256-115.2 256-256 256z m0-448c-108.8 0-192 83.2-192 192s83.2 192 192 192 192-83.2 192-192-83.2-192-192-192z"  horiz-adv-x="1024" />

    
    <glyph glyph-name="xiugaimima" unicode="&#58953;" d="M780.8 512V595.2C780.8 742.4 659.2 864 512 864 364.8 864 243.2 742.4 243.2 595.2V512C179.2 512 128 454.4 128 390.4v-371.2c0-64 51.2-115.2 115.2-115.2h531.2c64 0 115.2 51.2 115.2 115.2V390.4c6.4 64-44.8 121.6-108.8 121.6z m-236.8-384c0-19.2-12.8-32-32-32s-32 12.8-32 32V300.79999999999995c0 19.2 12.8 32 32 32s32-12.8 32-32V128z m172.8 384H307.2V595.2c0 115.2 89.6 204.8 204.8 204.8s204.8-89.6 204.8-204.8V512z"  horiz-adv-x="1024" />

    
    <glyph glyph-name="weibiaoti-" unicode="&#59039;" d="M256 768h16v-768h-16zM256.012 753.626l7.014 14.38L771.72 519.885l-7.014-14.38zM764.68 527.999l7.013-14.38L263.001 265.5l-7.014 14.379z"  horiz-adv-x="1024" />

    
    <glyph glyph-name="tupian" unicode="&#58916;" d="M0-128h1300.948V896H0v-1024z m959.535 812.457c61.025 0 110.497-49.472 110.497-110.497s-49.472-110.498-110.497-110.498c-61.013 0-110.492 49.472-110.492 110.498-0.006 61.025 49.473 110.497 110.492 110.497m-829.05-675.646L463.81 568.8l306.66-464.438 144.004 95.558 255.989-191.11H130.484z"  horiz-adv-x="1300" />

    
    <glyph glyph-name="tianjia3" unicode="&#58884;" d="M512-128c-284.444444 0-512 227.555556-512 512s227.555556 512 512 512 512-227.555556 512-512-227.555556-512-512-512zM512 839.111111C261.688889 839.111111 56.888889 634.311111 56.888889 384s204.8-455.111111 455.111111-455.111111 455.111111 204.8 455.111111 455.111111-204.8 455.111111-455.111111 455.111111zM768 355.555556h-512c-17.066667 0-28.444444 11.377778-28.444444 28.444444s11.377778 28.444444 28.444444 28.444444h512c17.066667 0 28.444444-11.377778 28.444444-28.444444s-11.377778-28.444444-28.444444-28.444444zM512 99.55555600000002c-17.066667 0-28.444444 11.377778-28.444444 28.444444v512c0 17.066667 11.377778 28.444444 28.444444 28.444444s28.444444-11.377778 28.444444-28.444444v-512c0-17.066667-11.377778-28.444444-28.444444-28.444444z"  horiz-adv-x="1024" />

    
    <glyph glyph-name="guanbi" unicode="&#58967;" d="M540.98944 384.233472l369.568768 369.568768c7.99744 7.998464 7.99744 20.965376 0 28.962816-7.998464 7.998464-20.9664 7.998464-28.96384 0L512.026624 413.197312 142.488576 782.733312c-7.998464 7.998464-20.965376 7.998464-28.962816 0s-7.998464-20.965376 0-28.962816l369.536-369.536L113.55648 14.727168000000006c-7.998464-7.998464-7.998464-20.9664 0-28.96384 3.99872-3.99872 9.239552-5.997568 14.481408-5.997568s10.482688 1.998848 14.481408 5.997568l369.507328 369.507328 369.539072-369.539072c3.99872-3.99872 9.240576-5.997568 14.482432-5.997568s10.482688 1.998848 14.482432 5.997568c7.99744 7.998464 7.99744 20.9664 0 28.96384L540.98944 384.233472z"  horiz-adv-x="1024" />

    
    <glyph glyph-name="queren3" unicode="&#58889;" d="M339.794 144.62699999999995L64.303 418.21l68.858 68.37 275.493-273.582 482.125 478.794 68.917-68.399-482.127-478.766-68.915-68.418-68.86 68.418z"  horiz-adv-x="1024" />

    
    <glyph glyph-name="arrow-right" unicode="&#58882;" d="M508.32420804 201.80483648999996l-271.67889754 208.74488372c-8.0803773 6.23707107-21.17892669 6.23707107-29.26566901 0-8.0803773-6.14477845-8.0803773-16.27978025 0-22.4162842l297.57047596-228.6902719 3.37345409 2.65802722 3.37345409-2.65802722 297.57047596 228.6902719c8.0803773 6.14477845 8.0803773 16.27978025 0 22.4162842-8.0803773 6.23707107-21.17892669 6.23707107-29.265669-1e-8l-271.67889755-208.74488371zM508.32420804 406.46211225l-271.67889755 208.74488372c-8.0803773 6.23707107-21.17892669 6.23707107-29.265669-1e-8-8.0803773-6.14477845-8.0803773-16.27978025 0-22.41628419l297.57047596-228.69027191 3.37345409 2.65802724 3.37345409-2.65802724 297.57047596 228.69027191c8.0803773 6.14477845 8.0803773 16.27978025 0 22.41628419-8.0803773 6.23707107-21.17892669 6.23707107-29.265669 1e-8l-271.67889755-208.74488372z"  horiz-adv-x="1024" />

    
    <glyph glyph-name="chuangwei" unicode="&#58899;" d="M1593.17 298.66700000000003H227.84c-34.588 0-49.664 22.87-49.664 56.548 0 33.28 27.705 60.586 62.236 60.586h280.804l47.957 110.421h910.222c53.76-6.372 113.209-8.476 113.607-62.18l0.455-169.358-0.287 3.983zM340.252 442.425c-69.632 0-125.952 54.613-125.952 123.051 0 67.982 56.32 122.652 125.952 122.652 69.575 0 125.838-54.613 125.838-122.652 0-68.437-56.377-123.051-125.838-123.051z m1251.27-541.639l-112.122-0.342V128H114.062v-227.556L0-99.21500000000003V798.8340000000001C0 836.55 30.834 867.27 69.177 867.27c38.969 0 69.803-30.72 69.803-68.437v-560.64h1452.54v-337.408z"  horiz-adv-x="1593" />

    
    <glyph glyph-name="add" unicode="&#58883;" d="M510.12507762-71.58469632000003c-250.93545643 0-454.35920043 203.46473813-454.35920043 454.43255751S259.18962119 837.26531584 510.12507762 837.26531584c250.93761365 0 454.36135765-203.44963527 454.36135765-454.41745465S761.06269127-71.58469632000003 510.12507762-71.58469632000003zM510.12507762 780.4652908099999c-219.57095083 0-397.56349099-178.01843029-397.56349099-397.61742962S290.55412565-14.771726790000002 510.12507762-14.771726790000002s397.56349099 178.02058752 397.56349099 397.61958798S729.69602845 780.4652908099999 510.12507762 780.4652908099999zM680.51004643 354.44137643L538.52508957 354.44137643l0-142.00653369c0-15.67685859-12.71452331-28.39569749-28.39785472-28.39569749-15.68333141 0-28.39569749 12.7188389-28.3956975 28.39569749l0 142.00653369-141.98927246 0c-15.68333141 0-28.39785472 12.71668053-28.39785472 28.40648476 0 15.67901582 12.71668053 28.39569749 28.39785472 28.3956975l141.98927246 0 0 142.0130065c0 15.67685859 12.71452331 28.38922467 28.3956975 28.38922468 15.68548864 0 28.39785472-12.71020771 28.39785472-28.38922468l0-142.0130065 141.984958 0c15.68548864 0 28.39785472-12.71668053 28.39785472-28.3956975C708.90790115 367.15805695999995 696.19553507 354.44137643 680.51004643 354.44137643z"  horiz-adv-x="1024" />

    
    <glyph glyph-name="ditie" unicode="&#58998;" d="M853.333333 861.866667H170.666667C133.12 861.866667 102.4 831.146667 102.4 793.6v-682.666667c0-37.546667 30.72-68.266667 68.266667-68.266666h75.656533L189.44-40.465066999999976A34.0992 34.0992 0 0 1 217.565867-93.866667c1.006933 0 1.9968 0.273067 3.003733 0.3584 1.1776-0.136533 2.321067-0.3584 3.549867-0.3584h581.6832l0.341333 0.034134 0.290133-0.034134c0.443733 0 0.887467 0.187733 1.3312 0.2048a33.706667 33.706667 0 0 1 10.632534 2.269867c0.887467 0.3584 1.706667 0.802133 2.542933 1.2288 1.570133 0.750933 3.2256 1.245867 4.7104 2.269867a34.082133 34.082133 0 0 1 8.891733 47.428266L777.6768 42.66666699999996H853.333333c37.546667 0 68.266667 30.72 68.266667 68.266666V793.6c0 37.546667-30.72 68.266667-68.266667 68.266667zM204.8 213.33333300000004a68.266667 68.266667 0 1 0 136.533333 0 68.266667 68.266667 0 0 0-136.533333 0z m536.900267-238.933333H282.299733l46.711467 68.266667h365.960533l46.728534-68.266667zM750.933333 145.06666700000005a68.266667 68.266667 0 1 0 0 136.533333 68.266667 68.266667 0 0 0 0-136.533333z m68.266667 307.2c0-37.546667-30.72-68.266667-68.266667-68.266667H273.066667c-37.546667 0-68.266667 30.72-68.266667 68.266667v68.266666c0 37.546667 30.72 68.266667 68.266667 68.266667h477.866666c37.546667 0 68.266667-30.72 68.266667-68.266667v-68.266666z m-34.133333 238.933333H238.933333c-18.773333 0-34.133333 15.36-34.133333 34.133333s15.36 34.133333 34.133333 34.133334h546.133334c18.773333 0 34.133333-15.36 34.133333-34.133334s-15.36-34.133333-34.133333-34.133333z"  horiz-adv-x="1024" />

    
    <glyph glyph-name="gou" unicode="&#59015;" d="M368.64 275.456L132.608 465.92 28.16 379.39200000000005l408.064-428.032c70.144 185.344 292.864 547.84 564.736 805.376l-25.088 59.392C679.936 629.248 464.896 393.728 368.64 275.456z m0 0"  horiz-adv-x="1024" />

    
    <glyph glyph-name="shoucangjia" unicode="&#58911;" d="M1014.272 301.568l-189.952 27.648-84.992 172.032-84.992-172.032-189.952-27.648 137.216-133.632-32.256-188.928 169.984 89.088 169.984-89.088-32.256 188.928 137.216 133.632z m-250.368-188.416l-24.064 12.288-24.064-12.288-77.824-40.96 14.848 87.04 4.608 26.624-19.456 18.944-62.976 61.44 87.04 12.8 26.624 4.096 11.776 24.064 38.912 78.848L778.24 307.20000000000005l11.776-24.064 26.624-4.096 87.04-12.8-62.976-61.44-19.456-18.944 4.608-26.624 14.848-87.04-76.8 40.96zM507.392 98.81600000000003c-1.024 0-2.048 0-3.072-0.512h-399.36L56.832 689.664h189.952l43.52-69.632c15.36-24.064 41.472-38.4 69.632-38.4l521.728 0.512c3.584 0 5.632-1.536 7.168-3.072 1.536-1.536 3.072-4.096 2.56-7.68l-15.872-179.2c-0.512-2.048-1.024-4.096-1.024-6.144v-3.072h0.512c1.536-12.8 12.288-22.528 25.6-22.528s24.064 9.728 25.6 22.528l15.872 184.32c3.072 35.84-25.088 66.048-60.928 66.048h-61.44V690.688c0 25.6-20.992 46.592-46.592 46.592H449.536c-14.336 0-25.6-11.264-25.6-25.6s11.264-25.6 25.6-25.6h320v-52.736l-409.088-0.512c-10.752 0-20.48 5.632-26.624 14.848l-49.664 78.848c-5.632 9.216-15.872 14.848-26.624 14.848H35.328c-18.432 0-32.768-15.36-31.232-33.792l51.2-631.296c1.536-16.384 14.848-28.672 31.232-28.672h417.792v0.512c1.024 0 2.048-0.512 3.072-0.512 14.336 0 25.6 11.264 25.6 25.6 0 13.824-11.264 25.6-25.6 25.6z"  horiz-adv-x="1024" />

    


  </font>
</defs>
</svg>
